<svg width="433" height="434" viewBox="0 0 433 434" fill="none" xmlns="http://www.w3.org/2000/svg">
<path d="M66.2396 13.0044C59.1296 14.8344 53.7096 20.7844 52.2296 27.9744C50.8096 34.8444 50.9196 45.3244 55.6196 60.9244C61.4696 80.3344 61.7996 101.044 55.8896 120.434C51.8996 133.524 45.0996 148.834 33.8196 165.754C-24.6104 253.394 48.0196 318.004 48.0196 318.004L129.86 105.454C127.6 73.4144 107.77 2.32438 66.2496 13.0244L66.2396 13.0044Z" fill="#E6E6CB"/>
<path d="M232.369 251.915C222.249 251.915 211.969 250.485 201.789 247.465C144.689 230.575 111.989 170.385 128.879 113.285L139.499 77.4046C147.679 49.7446 166.149 26.9346 191.489 13.1546C216.829 -0.615436 246.019 -3.69543 273.679 4.48457C330.769 21.3746 363.479 81.5646 346.589 138.665L335.969 174.545C322.089 221.455 278.979 251.905 232.369 251.905V251.915ZM243.059 49.0546C217.599 49.0546 194.049 65.6846 186.469 91.3046L175.849 127.185C166.619 158.375 184.489 191.255 215.679 200.475C246.869 209.705 279.739 191.835 288.969 160.645L299.589 124.765C308.819 93.5746 290.949 60.6946 259.759 51.4746C254.199 49.8246 248.579 49.0446 243.049 49.0446L243.059 49.0546Z" fill="#F1ECE8"/>
<path d="M330.579 173.105C330.579 173.105 295.529 117.665 349.859 92.3647C349.859 92.3647 349.619 146.515 335.969 174.555L330.589 173.105H330.579Z" fill="#DED9D7"/>
<path d="M232.369 251.915C222.249 251.915 211.969 250.485 201.789 247.465C144.689 230.575 111.989 170.385 128.879 113.285L139.499 77.4046C147.679 49.7446 166.149 26.9346 191.489 13.1546C216.829 -0.615436 246.019 -3.69543 273.679 4.48457C330.769 21.3746 363.479 81.5646 346.589 138.665L335.969 174.545C322.089 221.455 278.979 251.905 232.369 251.905V251.915ZM243.059 49.0546C217.599 49.0546 194.049 65.6846 186.469 91.3046L175.849 127.185C166.619 158.375 184.489 191.255 215.679 200.475C246.869 209.705 279.739 191.835 288.969 160.645L299.589 124.765C308.819 93.5746 290.949 60.6946 259.759 51.4746C254.199 49.8246 248.579 49.0446 243.049 49.0446L243.059 49.0546Z" fill="#0F242A"/>
<path d="M378.329 104.444C378.329 104.444 334.529 81.6144 328.299 133.444C328.299 133.444 321.249 154.684 355.239 173.034L339.539 218.004L411.609 211.904C411.609 211.904 427.199 198.204 429.009 175.304C429.829 164.854 427.189 154.424 421.829 145.404C414.399 132.904 399.029 111.304 378.339 104.444H378.329Z" fill="#E6E6CB"/>
<path d="M366.641 205.535C366.641 205.535 369.481 190.335 361.051 178.015L353.991 173.035L350.641 186.495C350.641 186.495 361.181 199.675 361.281 204.755L366.651 205.535H366.641Z" fill="#D6D6A9"/>
<path d="M374.23 109.984C374.23 109.984 364.96 107.464 365.2 116.894C365.44 126.324 361.97 138.384 354.42 145.954C346.87 153.524 355.45 158.074 362.84 160.414C370.24 162.754 396.81 173.154 404.93 151.354C404.93 151.354 416.15 127.274 374.23 109.984Z" fill="#F1ECE8"/>
<path d="M330.584 173.106L125.764 107.7C101.741 100.029 76.0489 113.284 68.3778 137.307L23.2681 278.569C15.597 302.591 28.8522 328.284 52.8745 335.955L257.695 401.361C281.717 409.032 307.41 395.777 315.081 371.754L360.19 230.492C367.861 206.47 354.606 180.777 330.584 173.106Z" fill="#F1ECE8"/>
<path d="M330.584 173.106L125.764 107.7C101.741 100.029 76.0489 113.284 68.3778 137.307L23.2681 278.569C15.597 302.591 28.8522 328.284 52.8745 335.955L257.695 401.361C281.717 409.032 307.41 395.777 315.081 371.754L360.19 230.492C367.861 206.47 354.606 180.777 330.584 173.106Z" stroke="#2A2826" stroke-width="5" stroke-miterlimit="10" stroke-linecap="round"/>
<path d="M292.664 161.007L125.377 107.587C101.565 99.983 76.0975 113.122 68.4937 136.934L23.1406 278.958C15.5367 302.77 28.6758 328.238 52.4876 335.841L219.775 389.262C243.587 396.866 269.054 383.727 276.658 359.915L322.011 217.89C329.615 194.079 316.476 168.611 292.664 161.007Z" fill="#F1ECE8"/>
<path d="M346.49 188.105C346.1 186.455 345.42 184.975 344.47 183.645C344.47 183.645 344.47 183.625 344.46 183.625C343.31 181.835 341.87 180.165 340.18 178.815C339.76 178.265 339.31 177.745 338.82 177.295C335.68 174.405 331.55 172.265 327.15 172.465C325.69 172.665 324.23 172.855 322.76 173.055C319.99 173.835 317.59 175.225 315.54 177.235C314.02 176.095 312.31 175.205 310.47 174.795C308.93 174.445 307.42 174.295 305.93 174.315C306.2 172.445 306.07 170.585 305.48 168.715C304.93 167.405 304.37 166.085 303.82 164.775C302.78 162.855 301.37 161.305 299.57 160.145C298.54 159.125 297.33 158.415 295.93 158.025C293.96 156.995 291.84 156.515 289.57 156.605C285.18 156.805 281.08 158.295 277.9 161.435C275.73 163.585 273.57 165.745 271.43 167.915C271.95 166.335 272.22 164.705 272.15 163.095C271.95 161.635 271.76 160.175 271.56 158.705C271.11 156.825 270.28 155.165 269.1 153.715C268.86 153.375 268.6 153.045 268.31 152.735C268.25 152.665 268.19 152.595 268.13 152.525C266.97 150.765 265.45 149.375 263.56 148.355C263.5 148.325 263.44 148.295 263.38 148.265C261.42 146.245 258.96 144.585 256.21 143.955C251.97 142.985 247.27 143.215 243.5 145.615C241.9 146.635 240.32 147.675 238.73 148.705C237 147.215 234.98 146.045 232.76 145.545C231.3 145.345 229.84 145.155 228.37 144.955C227.73 144.955 227.09 145.005 226.47 145.075C226.4 141.085 224.62 136.395 221.65 133.665C218.51 130.775 214.38 128.635 209.98 128.835C208.52 129.035 207.06 129.225 205.59 129.425C202.79 130.205 200.37 131.625 198.31 133.665C188.24 141.865 178.36 150.305 168.66 158.955C168.62 158.415 168.55 157.865 168.4 157.325C168.38 156.915 168.32 156.525 168.27 156.125C170.95 153.635 173.6 151.125 176.2 148.555C179.07 145.725 181.22 140.975 181.03 136.885C180.83 135.425 180.64 133.965 180.44 132.495C180 130.645 179.19 129.015 178.05 127.585C177.9 127.385 177.74 127.185 177.58 126.995C177.55 126.955 177.52 126.915 177.49 126.885C177.34 126.685 177.17 126.495 177.01 126.305C175.87 124.645 174.4 123.305 172.58 122.325C172.55 122.305 172.52 122.295 172.49 122.285C170.72 120.705 168.62 119.455 166.32 118.935C162 117.955 157.49 118.295 153.61 120.595C153.43 120.705 153.25 120.815 153.07 120.925C151.75 120.275 150.37 119.885 148.91 119.735C148.35 118.215 147.52 116.845 146.42 115.645C144.31 112.915 141.3 110.515 137.85 109.735C136.39 109.535 134.93 109.345 133.46 109.145C130.48 109.145 127.71 109.905 125.13 111.395C112.99 120.595 101.14 130.165 89.69 140.205C88.63 140.575 87.61 141.045 86.66 141.625C82.86 142.075 79.34 143.555 76.53 146.335C68.17 154.625 60.31 163.475 53.04 172.775C47.53 177.125 42.1 181.565 36.75 186.085C34.47 187.935 32.21 189.795 29.96 191.675C21.29 198.915 12.84 206.415 4.83 214.385C1.84 217.365 0 221.835 0 226.055C0 230.275 1.8 234.935 4.83 237.725C7.36 240.045 10.53 241.865 13.95 242.395C14.73 245.105 16.16 247.725 18.1 249.505C19.7 250.975 21.55 252.245 23.56 253.115C24.57 254.635 25.81 256.015 27.2 257.075C27.04 257.775 26.92 258.495 26.89 259.225C26.4 261.415 26.5 263.615 27.18 265.805C27.73 267.115 28.29 268.435 28.84 269.745C29.88 271.665 31.29 273.215 33.09 274.375C34.12 275.395 35.33 276.105 36.73 276.495C37.93 277.125 39.2 277.525 40.52 277.735C37.06 281.145 33.64 284.575 30.28 288.085C28.99 289.425 27.72 290.785 26.44 292.145C23.49 295.305 21.61 299.435 21.61 303.815C21.61 307.865 23.41 312.695 26.44 315.485C29.58 318.375 33.71 320.515 38.11 320.315C39.19 320.265 40.24 320.135 41.28 319.925C41.16 320.735 41.08 321.555 41.11 322.405C41.11 326.455 42.91 331.285 45.94 334.075C48.04 336.005 50.59 337.585 53.36 338.375C54.74 341.595 57.27 344.735 60.24 346.305C61.76 347.105 63.4 347.735 65.09 348.135C64.37 349.195 63.66 350.245 62.95 351.305C61.74 353.195 61.09 355.245 60.99 357.435C60.5 359.625 60.6 361.825 61.28 364.015C61.83 365.325 62.39 366.645 62.94 367.955C63.98 369.875 65.39 371.425 67.19 372.585C68.22 373.605 69.43 374.315 70.83 374.705C72.8 375.735 74.92 376.215 77.19 376.125C78.65 375.925 80.11 375.735 81.58 375.535C84.38 374.755 86.8 373.335 88.86 371.295C90.38 369.335 91.9 367.385 93.42 365.435C96.04 365.905 98.7 365.855 101.31 365.255C103.46 364.745 105.33 363.765 106.92 362.305C108.72 361.145 110.13 359.595 111.17 357.675C113.98 351.845 116.86 346.045 119.77 340.275C119.36 341.425 119.11 342.605 119.05 343.845C118.56 346.035 118.66 348.235 119.34 350.425C119.89 351.735 120.45 353.055 121 354.365C122.04 356.285 123.45 357.835 125.25 358.995C126.28 360.015 127.49 360.725 128.89 361.115C130.86 362.145 132.98 362.625 135.25 362.535C135.74 362.515 136.25 362.475 136.75 362.415C136.65 362.975 136.57 363.545 136.55 364.135C136.06 366.325 136.16 368.525 136.84 370.715C137.39 372.025 137.95 373.345 138.5 374.655C139.54 376.575 140.95 378.125 142.75 379.285C143.78 380.305 144.99 381.015 146.39 381.405C146.52 381.475 146.66 381.525 146.79 381.585C147.92 385.315 150.79 389.265 154.26 391.095C155.81 391.915 157.51 392.555 159.25 392.955C159.17 393.105 159.08 393.255 158.99 393.405C158.01 395.135 157.05 396.875 156.09 398.625C153.99 402.435 153.26 407.105 154.43 411.335C155.48 415.165 158.44 419.305 162.01 421.195C165.84 423.215 170.48 424.235 174.72 422.855C178.91 421.505 182.19 419.015 184.58 415.275C185.26 414.215 185.94 413.145 186.62 412.085C187.83 412.295 189.03 412.255 190.24 411.925C192.44 411.825 194.48 411.175 196.37 409.965C197.48 409.105 198.6 408.245 199.71 407.385C201.75 405.325 203.17 402.895 203.95 400.105C206.42 393.885 208.95 387.695 211.51 381.515C212.73 381.495 213.95 381.315 215.17 380.935C219.03 379.685 223.27 377.185 225.03 373.355C230.49 361.445 236.17 349.595 242.28 337.985C247.77 331.225 253.3 324.505 258.9 317.835C272.69 301.415 286.83 285.285 301.29 269.455C309.39 260.585 317.6 251.805 325.91 243.125C328.75 240.165 330.93 235.665 330.74 231.455C330.54 229.995 330.35 228.535 330.15 227.065C329.7 225.175 328.86 223.505 327.67 222.045C332.62 216.165 337.48 210.215 342.18 204.145C343.79 202.655 344.93 200.885 345.59 198.835C346.62 196.865 347.1 194.745 347.01 192.475C346.81 191.015 346.62 189.555 346.42 188.085L346.49 188.105Z" fill="#E3F97E"/>
<path d="M324.15 205.305C324.15 205.305 257.81 208.225 261.26 257.365C261.26 257.365 264.39 279.215 272.69 284.475C272.69 284.475 224.81 301.135 244.95 346.805C244.95 346.805 214.77 362.555 219.79 389.255L327.69 383.815L355.74 205.595L324.15 205.305Z" fill="#D6D6A9"/>
<path d="M292.664 161.007L125.377 107.587C101.565 99.983 76.0975 113.122 68.4937 136.934L23.1406 278.958C15.5367 302.77 28.6758 328.238 52.4876 335.841L219.775 389.262C243.587 396.866 269.054 383.727 276.658 359.915L322.011 217.89C329.615 194.079 316.476 168.611 292.664 161.007Z" stroke="#2A2826" stroke-width="6" stroke-miterlimit="10" stroke-linecap="round"/>
<path d="M304.351 211.024C291.971 214.444 274.271 226.284 274.041 244.284C273.531 284.444 306.041 289.464 306.041 289.464C306.041 289.464 258.601 278.924 248.821 321.464C248.821 321.464 242.801 348.194 271.411 359.484C271.411 359.484 226.231 350.824 222.091 394.874C222.091 394.874 216.071 430.264 255.221 429.514C294.371 428.764 373.061 425.374 390.371 386.224C390.371 386.224 395.261 371.164 390.371 361.374L386.221 352.864C386.221 352.864 408.231 346.314 410.341 314.224C411.141 301.984 404.881 290.284 394.161 284.314C393.681 284.044 393.191 283.784 392.691 283.514C392.691 283.514 412.711 278.624 422.951 258.374C426.721 250.904 428.111 242.384 426.281 234.214C423.391 221.284 412.231 204.254 373.301 205.354C373.301 205.354 320.201 206.634 304.361 211.024H304.351Z" fill="#E6E6CB"/>
<path d="M303.41 227.715C303.41 227.715 314.7 242.775 308.3 260.465C308.3 260.465 302.09 272.135 319.31 270.255C336.53 268.375 365.15 266.495 370.42 243.525C375.69 220.555 345.57 215.665 332.77 216.415C319.97 217.165 299.31 215.665 303.41 227.705V227.715Z" fill="#F1ECE8"/>
<path d="M283.08 303.575C283.08 303.575 291.82 320.225 283.08 335.585C283.08 335.585 279.82 342.605 291.23 343.265C302.64 343.925 339.5 346.775 344.55 322.425C344.55 322.425 349.6 294.555 297.38 295.435C297.38 295.435 278.66 294.165 283.08 303.575Z" fill="#F1ECE8"/>
<path d="M254.84 388.565C254.84 388.565 262.18 405.505 253.29 417.785C253.29 417.785 249.9 425.265 263.17 425.265C276.44 425.265 309.33 427.525 314.42 403.525C314.42 403.525 317.53 375.435 266.98 377.545C266.98 377.545 253.64 375.855 252.9 382.765C252.9 382.765 252.16 385.165 254.84 388.555V388.565Z" fill="#F1ECE8"/>
<path d="M415.081 213.474C426.691 199.234 434.121 181.134 431.701 162.524C430.471 153.064 426.631 144.574 421.311 136.724C416.161 129.114 410.481 121.304 403.341 115.434C395.371 108.884 386.001 104.594 376.641 100.424C375.161 99.7645 373.421 99.9945 372.541 101.504C371.791 102.784 372.131 104.944 373.621 105.604C381.411 109.074 389.281 112.584 396.281 117.534C403.331 122.524 408.681 129.354 413.711 136.294C418.741 143.234 423.261 150.764 425.121 159.334C426.961 167.804 426.351 176.694 423.931 184.984C421.341 193.854 416.681 202.084 410.851 209.234C409.831 210.484 409.621 212.254 410.851 213.474C411.911 214.534 414.061 214.734 415.091 213.474H415.081Z" fill="#2A2826"/>
<path d="M369.23 178.235C363.73 176.925 359.23 173.305 354.83 169.935C350.47 166.595 346.15 163.175 342.25 159.295C335.14 152.205 329.23 142.465 329.35 132.165C329.38 129.995 329.72 127.795 330.54 125.815C330.94 124.855 331.47 123.965 331.86 122.995C331.91 122.875 331.96 122.765 332 122.645C332.06 122.485 331.63 123.495 331.93 122.825C332.1 122.435 332.27 122.055 332.45 121.675C332.94 120.635 333.46 119.605 334.01 118.595C334.69 117.345 335.43 116.125 336.21 114.945C336.63 114.305 337.07 113.675 337.53 113.055C337.63 112.925 337.73 112.785 337.83 112.655C338.32 111.975 337.45 113.115 337.98 112.465C338.25 112.135 338.52 111.795 338.79 111.475C341.27 108.535 343.4 106.605 346.55 104.895C346.99 104.655 347.45 104.435 347.91 104.215C348.03 104.155 348.59 103.925 348.08 104.135C348.34 104.035 348.6 103.935 348.86 103.835C349.84 103.485 350.85 103.205 351.87 103.015C352.06 102.975 352.25 102.945 352.44 102.915C352.8 102.865 352.82 102.855 352.51 102.905C352.66 102.885 352.8 102.875 352.95 102.865C353.59 102.825 354.23 102.785 354.88 102.775C356.49 102.735 358.11 102.735 359.72 102.805C366.02 103.055 372.3 104.325 377.8 107.505C381.15 109.435 384.17 104.255 380.83 102.325C375.23 99.0948 368.97 97.5348 362.57 96.9848C357.51 96.5448 351.99 96.3348 347.14 98.1048C339.66 100.835 334.04 106.905 329.99 113.575C328.75 115.615 327.65 117.735 326.7 119.915C326.43 120.535 326.21 121.205 325.91 121.815C325.79 122.065 326.44 120.835 325.83 121.795C325.44 122.415 325.16 123.195 324.89 123.865C324.37 125.135 323.99 126.445 323.76 127.795C321.73 139.375 327.29 151.355 334.67 159.995C339.01 165.065 344.22 169.295 349.48 173.365C355.02 177.655 360.63 182.385 367.6 184.045C371.35 184.935 372.96 179.155 369.2 178.255L369.23 178.235Z" fill="#2A2826"/>
<path d="M361.411 127.415C359.161 134.075 353.511 138.895 350.781 145.325C349.271 148.885 348.631 152.845 351.361 155.985C353.701 158.685 357.461 159.825 360.671 161.105C368.211 164.135 376.001 167.615 384.291 167.585C390.801 167.555 397.691 165.415 402.231 160.565C408.371 154.005 409.651 142.985 406.871 134.695C406.141 132.505 402.661 133.445 403.401 135.655C404.611 139.255 404.911 143.065 404.391 146.825C403.901 150.355 402.811 154.045 400.631 156.915C397.131 161.525 391.171 163.675 385.541 163.955C378.391 164.305 371.551 161.625 365.031 159.005C361.831 157.725 358.231 156.685 355.361 154.725C354.351 154.035 353.411 153.105 353.121 151.875C352.721 150.195 353.401 148.325 354.041 146.785C356.831 140.145 362.561 135.265 364.881 128.355C365.621 126.155 362.151 125.215 361.411 127.395V127.415Z" fill="#2A2826"/>
<path d="M366.95 119.795C366.62 116.765 366.71 113.405 370.18 112.425C373.43 111.515 377.17 113.185 380.06 114.605C385.86 117.445 390.83 121.785 394.38 127.185C395.65 129.115 398.76 127.315 397.49 125.365C393.15 118.755 386.95 113.545 379.65 110.495C375.85 108.905 371.46 107.665 367.55 109.605C363.64 111.545 362.92 115.805 363.35 119.795C363.46 120.765 364.1 121.585 365.15 121.595C366.04 121.595 367.06 120.765 366.95 119.795Z" fill="#2A2826"/>
<path d="M352.41 173.654C350.98 177.364 349.71 181.134 348.63 184.954C348.2 186.464 349.16 188.284 350.73 188.644C352.3 189.004 353.96 188.164 354.42 186.544C355.51 182.724 356.77 178.954 358.2 175.244C358.46 174.564 358.25 173.544 357.9 172.934C357.55 172.324 356.82 171.714 356.11 171.554C354.39 171.164 353.03 172.074 352.42 173.654H352.41Z" fill="#2A2826"/>
<path d="M301.15 284.394C293.57 282.894 286.84 278.254 282.34 272.044C277.54 265.404 275.84 258.134 275.7 250.074C275.67 248.314 275.72 246.554 275.86 244.804C275.92 244.114 276.05 242.864 276.1 242.534C276.08 242.704 276.21 241.834 276.24 241.654C276.31 241.234 276.38 240.824 276.47 240.404C276.76 238.914 277.14 237.444 277.6 236.004C277.8 235.364 278.03 234.724 278.27 234.094C278.39 233.784 278.51 233.484 278.63 233.174C278.37 233.824 278.82 232.744 278.91 232.564C279.46 231.374 280.08 230.204 280.76 229.084C281.07 228.574 281.39 228.084 281.73 227.594C281.89 227.354 282.06 227.114 282.23 226.884C282.35 226.714 283.04 225.834 282.54 226.464C283.97 224.684 285.53 223.044 287.27 221.564C287.49 221.374 287.71 221.194 287.94 221.004C288.11 220.874 288.77 220.374 288.08 220.884C288.51 220.564 288.93 220.244 289.37 219.944C290.21 219.354 291.07 218.804 291.96 218.294C292.77 217.824 293.6 217.374 294.44 216.964C294.85 216.764 295.27 216.564 295.69 216.374C295.88 216.284 296.08 216.204 296.27 216.114C297.05 215.764 295.94 216.234 296.34 216.084C298.88 215.094 301.44 214.244 304.12 213.704C304.5 213.624 304.88 213.554 305.26 213.494C305.92 213.384 305.99 213.404 305.17 213.494C308.31 213.124 311.42 212.534 314.57 212.204C325.52 211.064 336.48 209.854 347.45 209.054C358.42 208.254 369.66 208.454 380.74 208.644C386.05 208.734 391.22 209.294 396.39 210.514C401.14 211.634 406.03 212.824 410.08 215.664C411.87 216.914 413.42 218.474 414.84 220.124C415.9 221.354 418 221.204 419.08 220.124C420.3 218.904 420.14 217.114 419.08 215.884C415.71 211.964 411.51 208.974 406.65 207.214C401.4 205.304 395.8 204.054 390.26 203.314C384.72 202.574 378.76 202.624 372.99 202.594C367.22 202.564 361.5 202.454 355.76 202.624C344.34 202.954 332.94 204.384 321.58 205.514C318.69 205.804 315.8 206.074 312.91 206.394C311.54 206.544 310.17 206.724 308.8 206.904C308.09 207.004 307.38 207.104 306.68 207.214C306.37 207.264 306.05 207.314 305.74 207.374C305.53 207.414 304.53 207.624 305.36 207.484C304.73 207.594 304.09 207.644 303.46 207.754C297.01 208.844 290.59 211.574 285.36 215.484C281.14 218.644 277.54 222.534 274.96 227.154C271.72 232.934 270.17 239.474 269.8 246.054C269.32 254.524 270.47 263.234 274.5 270.794C278.63 278.534 285.39 284.924 293.49 288.314C295.46 289.144 297.48 289.784 299.58 290.194C301.17 290.514 302.82 289.744 303.27 288.094C303.68 286.614 302.77 284.724 301.17 284.404L301.15 284.394Z" fill="#2A2826"/>
<path d="M311.6 290.864C323.63 290.804 335.65 290.364 347.65 289.524C359.08 288.724 370.58 287.744 381.91 285.974C391.98 284.394 402.06 281.494 410.01 274.844C413.93 271.564 417.14 267.414 419.74 263.024C422.47 258.414 424.72 253.394 426.09 248.214C429.06 237.024 427.45 224.104 418.64 215.884C415.82 213.254 411.57 217.484 414.4 220.124C421.04 226.314 422.64 235.864 420.82 244.444C419.77 249.404 417.84 254.114 415.39 258.534C413.15 262.584 410.44 266.344 407.02 269.494C400.17 275.794 390.92 278.384 381.95 279.914C371.45 281.704 360.73 282.544 350.11 283.334C337.29 284.294 324.45 284.794 311.6 284.854C307.74 284.874 307.73 290.874 311.6 290.854V290.864Z" fill="#2A2826"/>
<path d="M309.49 235.765C308.22 232.705 305.89 229.765 305.51 226.405C305.13 223.045 307.47 221.145 310.52 220.485C312.22 220.115 313.98 220.115 315.72 220.045C317.66 219.965 319.61 219.885 321.55 219.805C325.4 219.645 329.25 219.475 333.09 219.335C345.06 218.915 360.86 219.695 366.81 232.205C369.8 238.485 367.9 246.125 363.72 251.385C363.11 252.155 362.99 253.175 363.72 253.935C364.34 254.565 365.66 254.695 366.27 253.935C370.73 248.325 373.11 240.855 371.2 233.765C369.45 227.275 364.25 222.235 358.31 219.365C351.13 215.905 343.03 215.475 335.19 215.675C330.96 215.785 326.74 215.995 322.52 216.175C318.3 216.355 314.08 216.195 310 216.935C305.92 217.675 302.41 220.305 301.93 224.585C301.41 229.165 304.36 232.755 306.02 236.735C306.4 237.635 307.21 238.265 308.23 237.995C309.08 237.775 309.86 236.675 309.49 235.785V235.765Z" fill="#2A2826"/>
<path d="M308 243.034C308.68 246.244 308.83 249.564 308.38 252.824C307.93 256.084 306.54 259.074 305.79 262.284C305.1 265.274 305.34 268.384 307.48 270.744C309.28 272.734 311.99 273.704 314.61 273.934C317.96 274.234 321.26 273.184 324.51 272.554C328.02 271.874 331.61 271.754 335.14 271.244C341.55 270.324 347.81 267.964 353.64 265.174C359.19 262.524 364.43 258.764 366.61 252.784C367.41 250.604 363.93 249.664 363.14 251.824C361.46 256.424 357.19 259.344 353 261.474C347.85 264.104 342.2 266.234 336.52 267.364C333.34 267.994 330.1 268.144 326.89 268.554C323.76 268.954 320.73 269.884 317.61 270.254C315.29 270.524 312.68 270.384 310.75 268.884C308.5 267.144 308.87 264.384 309.6 261.954C310.57 258.754 311.63 255.744 312.02 252.404C312.41 249.064 312.18 245.464 311.46 242.074C310.98 239.814 307.51 240.764 307.99 243.034H308Z" fill="#2A2826"/>
<path d="M277.68 362.624C296.86 362.304 316.03 361.304 335.13 359.604C344.7 358.754 354.25 357.724 363.78 356.534C368.38 355.964 372.98 355.404 377.58 354.794C381.65 354.254 385.66 353.544 389.49 352.014C397.54 348.794 404.48 343.104 407.49 334.784C408.04 333.264 406.87 331.504 405.39 331.094C403.72 330.634 402.25 331.664 401.7 333.194C399.54 339.184 394.09 343.604 388.22 346.104C384.86 347.534 381.13 348.304 377.48 348.814C373.08 349.424 368.67 349.934 364.26 350.484C345.91 352.774 327.49 354.464 309.02 355.504C298.58 356.084 288.13 356.464 277.68 356.634C273.82 356.694 273.81 362.694 277.68 362.634V362.624Z" fill="#2A2826"/>
<path d="M382.671 354.265C385.801 357.725 387.961 361.935 389.161 366.435C389.751 368.635 390.101 370.835 390.201 373.105C390.261 374.295 390.251 375.495 390.191 376.685C390.161 377.155 390.131 377.625 390.081 378.095C390.061 378.285 390.041 378.475 390.021 378.655C389.951 379.355 390.051 378.525 390.011 378.775C389.781 380.295 389.471 381.785 389.051 383.265C388.841 383.995 388.611 384.715 388.361 385.435C388.221 385.825 388.081 386.215 387.921 386.605C387.851 386.775 387.781 386.955 387.711 387.125C387.931 386.585 387.571 387.435 387.561 387.455C386.011 390.915 383.931 394.155 381.611 396.815C378.091 400.845 373.891 404.105 369.271 406.775C365.931 408.705 368.951 413.895 372.301 411.955C380.711 407.095 388.161 400.145 392.381 391.275C396.121 383.415 397.191 374.715 395.281 366.185C393.931 360.175 391.051 354.575 386.921 350.015C385.831 348.815 383.781 348.905 382.681 350.015C381.481 351.215 381.591 353.055 382.681 354.255L382.671 354.265Z" fill="#2A2826"/>
<path d="M220.53 406.665C222.14 416.715 231.43 423.355 240.22 427.075C250.08 431.245 261.14 432.775 271.76 433.335C293.25 434.455 314.97 430.835 335.65 425.175C346.98 422.075 358.12 418.255 368.99 413.795C370.49 413.175 371.55 411.805 371.09 410.105C370.7 408.685 368.91 407.395 367.4 408.005C348.36 415.825 328.44 421.785 308.11 425.085C297.99 426.725 287.72 427.635 277.47 427.515C267.22 427.395 257.53 426.355 247.97 423.505C242.69 421.935 237.57 419.425 233.35 416.135C232.4 415.395 231.49 414.595 230.64 413.745C229.79 412.895 229.27 412.285 228.7 411.435C227.36 409.435 226.72 407.565 226.32 405.075C226.06 403.475 224.07 402.585 222.63 402.975C220.93 403.445 220.28 405.055 220.53 406.665Z" fill="#2A2826"/>
<path d="M278.45 356.584C267.77 356.104 256.72 356.284 246.3 358.884C241.3 360.134 236.49 362.084 232.49 365.394C227.82 369.274 224.27 374.284 222.01 379.904C219.48 386.194 218.85 393.164 219.55 399.864C219.72 401.474 220.81 402.864 222.55 402.864C224.04 402.864 225.72 401.484 225.55 399.864C224.42 388.964 227.16 378.344 235.41 370.784C235.89 370.344 236.39 369.924 236.88 369.504C237.83 368.694 236.47 369.774 237.24 369.214C237.47 369.044 237.7 368.884 237.93 368.734C238.82 368.134 239.76 367.614 240.72 367.134C242.52 366.244 244.75 365.484 247.07 364.874C252.18 363.514 256.94 362.964 262.17 362.644C267.4 362.324 273.03 362.344 278.45 362.584C280.07 362.654 281.45 361.154 281.45 359.584C281.45 357.894 280.08 356.654 278.45 356.584Z" fill="#2A2826"/>
<path d="M390.109 284.435C396.559 287.965 401.319 294.065 403.839 300.915C406.909 309.235 407.049 318.365 405.749 327.055C405.509 328.655 406.149 330.285 407.849 330.745C409.269 331.135 411.299 330.265 411.539 328.645C413.759 313.895 412.259 298.045 402.059 286.405C399.539 283.535 396.499 281.075 393.139 279.245C389.779 277.415 386.719 282.575 390.109 284.425V284.435Z" fill="#2A2826"/>
<path d="M245.35 320.015C245 324.625 244.84 329.195 245.57 333.775C246.08 336.995 247.18 340.115 248.66 343.025C251.58 348.805 256.27 353.565 261.68 357.055C265.39 359.445 269.5 361.205 273.71 362.515C277.41 363.665 278.99 357.875 275.31 356.725C269.16 354.815 263.44 351.735 259.02 347.225C257.03 345.195 255.74 343.475 254.33 340.915C254.02 340.345 253.72 339.765 253.45 339.185C253.32 338.915 253.2 338.645 253.08 338.375C253.26 338.795 252.94 338.005 252.88 337.865C252.37 336.535 251.96 335.175 251.66 333.785C250.67 329.275 251.01 324.555 251.35 319.995C251.47 318.375 249.88 316.995 248.35 316.995C246.63 316.995 245.47 318.375 245.35 319.995V320.015Z" fill="#2A2826"/>
<path d="M254.12 312.765C257.28 308.425 260.51 304.055 264.69 300.645C266.61 299.075 268.82 297.835 271.02 296.715C271.58 296.425 272.15 296.155 272.73 295.885C273.08 295.725 273.42 295.565 273.77 295.415C273.92 295.355 274.06 295.285 274.21 295.225C274.95 294.895 273.63 295.455 274.4 295.145C276.05 294.485 277.71 293.865 279.4 293.325C283.35 292.075 287.68 291.135 291.57 290.705C297.6 290.035 303.74 290.145 309.74 291.035C311.34 291.275 312.96 290.635 313.43 288.935C313.82 287.525 312.95 285.485 311.33 285.245C300.57 283.645 289.57 284.055 279.09 287.145C273.28 288.855 267.3 291.275 262.38 294.895C256.92 298.915 252.89 304.305 248.93 309.735C247.98 311.045 248.71 313.075 250.01 313.835C251.53 314.725 253.16 314.075 254.11 312.755L254.12 312.765Z" fill="#2A2826"/>
<path d="M282.22 304.465C284.67 312.635 286.3 321.175 283.75 329.535C282.6 333.315 278.68 338.375 283.48 341.635C287.28 344.205 292.01 344.325 296.42 344.415C300.83 344.505 305.02 344.545 309.32 344.325C317.75 343.895 326.43 342.455 333.89 338.285C337.87 336.055 340.79 332.805 342.52 328.595C344.14 324.655 344.63 320.325 344.65 316.085C344.65 313.765 341.06 313.765 341.05 316.085C341.02 322.845 339.58 330.295 333.55 334.275C327.02 338.585 318.77 340.085 311.1 340.615C307.1 340.895 303.09 340.915 299.09 340.855C295.09 340.795 290.63 341.125 286.9 339.405C286.28 339.115 285.31 338.765 284.93 338.145C284.73 337.815 284.74 337.415 284.74 337.045C284.74 336.955 284.79 336.495 284.76 336.735C284.74 336.895 284.89 336.245 284.95 336.065C284.99 335.935 285.04 335.805 285.09 335.675C285.16 335.475 285.01 335.835 285.19 335.445C286 333.695 286.81 331.965 287.34 330.105C289.89 321.225 288.29 312.165 285.69 303.505C285.02 301.295 281.55 302.235 282.22 304.465Z" fill="#2A2826"/>
<path d="M285.31 299.984C288.07 297.604 291.81 296.864 295.36 296.834C299.58 296.794 303.82 297.484 308.01 297.944C312.2 298.404 316.31 298.704 320.41 299.334C322.4 299.634 324.19 300.474 326 301.304C327.81 302.134 329.57 302.954 331.28 303.914C334.79 305.884 337.97 308.414 339.84 312.044C340.9 314.104 344.01 312.284 342.95 310.224C341.13 306.694 338.16 303.955 334.85 301.845C333.06 300.705 331.17 299.754 329.26 298.854C327.35 297.954 325.32 296.924 323.25 296.284C321.18 295.644 318.93 295.554 316.78 295.314C314.43 295.054 312.07 294.794 309.72 294.534C305.13 294.024 300.48 293.264 295.85 293.234C291.22 293.204 286.41 294.285 282.76 297.435C281 298.955 283.56 301.484 285.31 299.984Z" fill="#2A2826"/>
<path d="M251.671 382.045C254.571 388.575 257.241 395.845 256.011 403.105C255.721 404.835 255.211 406.515 254.471 408.105C253.731 409.695 252.771 411.345 252.251 413.095C251.351 416.115 251.821 419.565 254.481 421.545C257.141 423.525 260.881 423.685 264.001 424.045C267.561 424.455 271.151 424.565 274.731 424.405C282.331 424.055 289.631 422.355 296.781 419.805C300.491 418.485 304.131 417.205 307.241 414.715C309.981 412.525 312.161 409.665 313.551 406.455C313.941 405.555 313.811 404.535 312.901 403.995C312.141 403.545 310.821 403.745 310.441 404.645C309.261 407.365 307.551 409.755 305.291 411.685C303.031 413.615 300.081 414.805 297.181 415.845C290.551 418.235 283.891 420.135 276.831 420.675C273.331 420.945 269.821 420.945 266.321 420.675C264.691 420.545 263.071 420.365 261.461 420.105C260.041 419.875 258.491 419.695 257.201 419.035C254.401 417.605 255.501 414.205 256.571 411.985C258.091 408.815 259.341 405.835 259.731 402.305C260.601 394.605 257.851 387.165 254.781 380.245C254.381 379.345 253.091 379.155 252.321 379.595C251.401 380.115 251.281 381.175 251.671 382.055V382.045Z" fill="#2A2826"/>
<path d="M255.931 380.375C267.821 378.935 280.261 379.365 291.861 382.515C294.571 383.255 297.101 384.685 299.511 386.235C302.611 388.235 305.551 390.645 307.831 393.565C310.111 396.485 311.771 400.285 310.791 404.105C310.221 406.355 313.691 407.305 314.261 405.065C316.421 396.625 309.911 389.365 303.621 384.715C300.731 382.575 297.551 380.725 294.171 379.485C292.031 378.695 289.721 378.295 287.481 377.855C284.341 377.245 281.161 376.795 277.981 376.475C270.641 375.755 263.241 375.885 255.921 376.775C254.951 376.895 254.131 377.515 254.121 378.575C254.121 379.455 254.961 380.495 255.921 380.375H255.931Z" fill="#2A2826"/>
<path d="M25.1511 277.815C13.5811 259.545 11.6711 237.445 15.3511 216.525C16.3811 210.655 17.5311 204.755 19.2311 199.035C20.8211 193.675 23.1311 188.685 26.0611 183.935C29.0311 179.115 32.5211 174.635 35.6811 169.935C38.8411 165.235 41.7511 160.405 44.5111 155.475C49.7111 146.195 54.4011 136.765 57.7311 126.655C61.3711 115.605 63.7611 103.925 63.4311 92.2347C63.1011 80.5447 59.2911 68.9147 56.4511 57.3747C53.8111 46.6447 52.1511 35.1447 56.0711 24.5047C57.8111 19.7747 61.9711 17.1347 66.6211 15.6647C71.5111 14.1247 76.6511 14.1647 81.5811 15.5047C91.3311 18.1647 98.9711 25.3147 104.331 33.6647C105.681 35.7647 106.901 37.9447 108.021 40.1747C108.751 41.6247 110.791 42.0347 112.121 41.2547C113.591 40.3947 113.931 38.6047 113.201 37.1547C108.361 27.5947 101.451 18.6347 91.9611 13.3447C81.9011 7.73465 69.5811 6.67465 59.2911 12.3447C56.7911 13.7247 54.5611 15.5347 52.8611 17.8347C51.1611 20.1347 50.1611 22.9447 49.3911 25.6647C47.8011 31.2847 47.4711 37.2547 47.9311 43.0647C48.9011 55.3247 53.1611 66.8847 55.7311 78.8247C60.5911 101.475 54.0011 124.725 43.4711 144.835C38.0911 155.105 32.0711 164.885 25.3111 174.305C21.9411 178.995 18.8111 183.895 16.4711 189.195C13.9811 194.835 12.4111 200.755 11.1411 206.775C8.71113 218.315 6.97112 230.015 7.77112 241.835C8.52112 252.875 11.1511 263.755 15.9911 273.735C17.1811 276.185 18.5111 278.555 19.9711 280.855C22.0311 284.105 27.2211 281.105 25.1511 277.825V277.815Z" fill="#2A2826"/>
<path d="M132.731 107.155C133.071 102.175 132.201 97.1547 131.441 92.2447C130.681 87.3347 129.781 82.5947 128.661 77.8247C126.531 68.7948 123.651 59.9448 120.071 51.3748C117.991 46.3948 115.711 41.5048 113.191 36.7248C112.431 35.2948 110.441 34.8548 109.091 35.6448C107.641 36.4948 107.251 38.3148 108.011 39.7448C116.551 55.9248 122.281 73.3947 125.281 91.4347C126.141 96.5848 127.091 101.895 126.741 107.135C126.631 108.755 128.201 110.135 129.741 110.135C131.461 110.135 132.631 108.755 132.741 107.135L132.731 107.155Z" fill="#2A2826"/>
<path d="M52.1008 46.7648C53.4708 46.3348 54.8608 45.9548 56.2508 45.6148C57.0308 45.4348 57.8108 45.2548 58.5908 45.1048C59.2508 44.9848 59.3208 44.7748 59.5808 45.3748C60.6708 47.9048 61.2908 50.7948 61.8208 53.4948C62.9108 59.0648 63.0808 64.7948 62.4408 70.4348C62.3308 71.4048 63.3508 72.2248 64.2408 72.2348C65.3008 72.2448 65.9308 71.3948 66.0408 70.4348C66.8008 63.7048 66.3708 56.8748 64.8008 50.2848C64.4108 48.6448 63.9408 47.0148 63.4008 45.4148C62.9308 44.0248 62.4508 42.4748 61.0508 41.7548C59.6508 41.0348 57.9208 41.5648 56.4708 41.8748C54.6708 42.2648 52.9008 42.7448 51.1508 43.2848C48.9408 43.9648 49.8908 47.4448 52.1108 46.7548L52.1008 46.7648Z" fill="#2A2826"/>
<path d="M405.961 335.325C408.071 332.005 409.161 328.395 409.801 324.545C410.471 320.475 411.421 316.355 410.751 312.225C410.591 311.265 409.401 310.735 408.541 310.965C407.521 311.245 407.131 312.215 407.281 313.175C407.851 316.715 406.851 320.505 406.261 323.985C405.671 327.465 404.721 330.555 402.851 333.495C401.611 335.455 404.721 337.265 405.961 335.315V335.325Z" fill="#2A2826"/>
<path d="M225.401 406.744C225.291 406.124 225.191 405.504 225.101 404.884C225.061 404.594 225.021 404.314 224.981 404.024C224.921 403.594 225.021 404.324 224.971 403.924C224.951 403.754 224.931 403.584 224.911 403.424C224.761 402.204 224.641 400.974 224.551 399.744C224.481 398.804 223.771 397.894 222.751 397.944C221.831 397.984 220.881 398.734 220.951 399.744C221.151 402.414 221.481 405.064 221.941 407.704C222.101 408.634 223.291 409.244 224.151 408.964C225.151 408.644 225.581 407.744 225.411 406.754L225.401 406.744Z" fill="#2A2826"/>
<path d="M191.485 247.09C195.75 233.732 190.683 220.181 180.166 216.822C169.649 213.464 157.665 221.57 153.399 234.928C149.134 248.286 154.201 261.837 164.718 265.196C175.235 268.554 187.219 260.448 191.485 247.09Z" fill="#D0E476"/>
<path d="M202.888 252.036C206.821 239.719 201.484 227.013 190.967 223.654C180.45 220.296 168.736 227.558 164.803 239.874C160.87 252.19 166.207 264.897 176.724 268.255C187.241 271.614 198.955 264.352 202.888 252.036Z" fill="#E2F97F"/>
<path d="M193.483 247.085C197.748 233.727 192.681 220.175 182.164 216.817C171.647 213.458 159.663 221.565 155.397 234.923C151.132 248.281 156.2 261.832 166.716 265.19C177.233 268.549 189.217 260.443 193.483 247.085Z" stroke="#2A2826" stroke-width="5" stroke-miterlimit="10"/>
<path d="M21.26 276.585C18.48 288.865 25.51 301.195 35.61 307.895C46.62 315.205 60.44 316.755 73.04 319.655C100.83 326.055 128.14 334.565 154.65 345.065C161.87 347.925 169.08 350.855 176.1 354.175C183.12 357.495 189.57 361.005 195.5 365.635C196.78 366.635 198.5 366.875 199.74 365.635C200.78 364.595 201.02 362.395 199.74 361.395C188.93 352.945 176.36 347.525 163.76 342.325C150.7 336.935 137.44 332.035 124.01 327.625C110.58 323.215 97.22 319.385 83.63 316.015C76.9 314.345 70.14 312.835 63.36 311.385C57.3 310.095 51.14 308.785 45.41 306.355C39.68 303.925 34.38 300.245 30.85 294.955C27.51 289.955 25.73 283.975 27.04 278.175C27.4 276.595 26.56 274.925 24.94 274.485C23.43 274.075 21.61 274.995 21.25 276.585H21.26Z" fill="#2A2826"/>
</svg>
