<svg width="732" height="575" viewBox="0 0 732 575" fill="none" xmlns="http://www.w3.org/2000/svg">
<g clip-path="url(#clip0_1_7)">
<g clip-path="url(#clip1_1_7)">
<rect y="265.94" width="600" height="309.06" rx="19.2824" fill="#B0EAB0"/>
<path d="M-69.4165 422.865C-54.4225 414.431 -40.9171 402.151 -27.2544 391.821C3.41869 368.629 34.4468 345.907 65.9397 323.839C113.111 290.784 162.113 254.353 215.877 232.467C218.546 231.381 235.136 223.78 238.719 227.364C240.846 229.49 233.024 239.162 232.158 240.486C215.15 266.513 192.401 289.37 172.256 312.903C136.792 354.333 102.923 396.784 76.7537 444.857C59.2518 477.008 48.4597 511.032 41.2743 546.8C39.4758 555.752 36.6571 565.649 36.6571 574.867" stroke="#80DD80" stroke-width="53.9907" stroke-linecap="round"/>
<path d="M303.02 640.979C305.437 631.311 310.073 621.552 313.712 612.426C327.325 578.286 341.231 544.227 356.361 510.726C391.478 432.967 432.306 357.198 483.941 289.041C497.338 271.356 511.545 253.851 529.14 240.135C536.375 234.495 545.021 228.584 554.292 227.013C571.591 224.081 581.593 240.992 587.706 254.594C599.286 280.365 606.394 318.19 590.804 343.779C581.964 358.288 567.272 367.548 552.408 374.945C529.356 386.417 504.387 393.596 480.417 402.83C442.142 417.575 405.469 434.113 387.101 473.121C373.464 502.083 366.975 539.072 370.82 571.114C372.936 588.748 392.929 587.086 404.173 579.133C419.435 568.338 431.288 551.707 442.386 537.093C469.271 501.689 511.752 463.851 590.804 451.318" stroke="#80DD80" stroke-width="53.9907" stroke-linecap="round"/>
</g>
<g clip-path="url(#clip2_1_7)">
<rect x="450.907" y="227.927" width="10.982" height="87.1698" rx="5.49101" fill="#353535"/>
<rect x="137.919" y="216.944" width="10.982" height="42.5553" rx="5.49101" fill="#353535"/>
<rect x="137.919" y="134.579" width="10.982" height="42.5553" rx="5.49101" fill="#353535"/>
<rect x="137.919" y="273.227" width="10.982" height="42.5553" rx="5.49101" fill="#353535"/>
<rect x="157" y="24" width="287" height="636" rx="37" fill="#F2F2F2"/>
<rect x="157" y="24" width="287" height="636" rx="37" stroke="#353535" stroke-width="6"/>
</g>
</g>
<g clip-path="url(#clip3_1_7)">
<g clip-path="url(#clip4_1_7)">
<rect x="624" y="265.772" width="600" height="309.06" rx="19.2824" fill="#A5D2DF"/>
<path d="M554.583 422.697C569.578 414.263 583.083 401.983 596.746 391.653C627.419 368.461 658.447 345.739 689.94 323.671C737.111 290.616 786.113 254.185 839.877 232.299C842.546 231.213 859.136 223.612 862.719 227.196C864.846 229.322 857.024 238.994 856.158 240.319C839.15 266.346 816.401 289.202 796.256 312.735C760.792 354.166 726.923 396.616 700.754 444.69C683.252 476.841 672.46 510.865 665.274 546.632C663.476 555.585 660.657 565.481 660.657 574.7" stroke="#B0EAB0" stroke-width="53.9907" stroke-linecap="round"/>
</g>
</g>
<defs>
<clipPath id="clip0_1_7">
<rect width="600" height="574.832" fill="white" transform="translate(0 0.167725)"/>
</clipPath>
<clipPath id="clip1_1_7">
<rect y="265.94" width="600" height="309.06" rx="19.2824" fill="white"/>
</clipPath>
<clipPath id="clip2_1_7">
<rect width="323.97" height="642" fill="white" transform="translate(137.919 21)"/>
</clipPath>
<clipPath id="clip3_1_7">
<rect width="600" height="574.832" fill="white" transform="translate(624)"/>
</clipPath>
<clipPath id="clip4_1_7">
<rect x="624" y="265.772" width="600" height="309.06" rx="19.2824" fill="white"/>
</clipPath>
</defs>
</svg>
