<svg width="89" height="26" viewBox="0 0 89 26" fill="none" xmlns="http://www.w3.org/2000/svg">
<path fill-rule="evenodd" clip-rule="evenodd" d="M0.0614898 8.18496C-0.129052 5.98813 2.04505 4.03482 4.30524 5.11343C7.08355 6.43931 10.6029 8.83355 11.346 12.5868C11.6065 13.9024 11.2498 15.1303 10.5849 16.198C10.6083 16.2366 10.6313 16.2753 10.6539 16.3143C11.4421 17.6783 11.6208 19.2838 10.7251 20.9316C9.88671 22.4739 8.1757 23.9233 5.53296 25.324C3.40709 26.4508 1.06617 24.8079 1.03024 22.5832L1.0161 21.7076C0.991756 20.2002 2.00705 18.9806 3.29036 18.5156C4.8499 17.9504 6.28686 17.1309 7.3265 16.2068C6.94688 15.8784 6.50544 15.5546 6.01307 15.2403C4.87322 14.5127 3.56586 13.9022 2.38866 13.4455C1.2488 13.0033 0.388813 11.9588 0.277393 10.6742L0.0614898 8.18496ZM8.80877 14.207C8.95055 13.7996 8.97871 13.4178 8.90968 13.0692C8.41445 10.5679 5.91722 8.63464 3.23556 7.35489C3.05398 7.26823 2.90011 7.29698 2.76919 7.3967C2.62569 7.50599 2.51297 7.70704 2.53581 7.97035L2.75172 10.4596C2.77561 10.735 2.96686 11.0059 3.2869 11.13C4.566 11.6262 6.03161 12.3057 7.34939 13.1469C7.85004 13.4664 8.34588 13.8197 8.80877 14.207ZM8.78446 18.2299C7.48571 19.3326 5.83504 20.2351 4.13653 20.8506C3.71247 21.0043 3.49441 21.3592 3.49939 21.6675L3.51353 22.5431C3.51768 22.8003 3.64762 22.9994 3.82178 23.1091C3.98847 23.2141 4.1788 23.2309 4.36985 23.1296C6.84959 21.8153 8.04969 20.653 8.54305 19.7454C8.83971 19.1997 8.90264 18.7093 8.78446 18.2299Z" fill="#80DD80"/>
<path fill-rule="evenodd" clip-rule="evenodd" d="M22.9035 7.82748C23.023 5.62565 20.7869 3.74356 18.5627 4.8946C15.8287 6.3095 12.3885 8.81614 11.767 12.5914C11.5491 13.9148 11.9453 15.1305 12.6444 16.1762C12.6221 16.2155 12.6004 16.255 12.5791 16.2946C11.8354 17.6834 11.7086 19.2938 12.657 20.9118C13.5448 22.4262 15.3017 23.8196 17.9883 25.1343C20.1495 26.1919 22.4361 24.4742 22.4002 22.2495L22.386 21.3739C22.3617 19.8665 21.3075 18.6804 20.0099 18.257C18.4329 17.7425 16.9702 16.9698 15.9013 16.0797C16.2701 15.7393 16.7009 15.4014 17.1828 15.0714C18.2986 14.3073 19.5855 13.6549 20.7474 13.1604C21.8724 12.6817 22.6982 11.6099 22.7681 10.3224L22.9035 7.82748ZM14.3552 14.1289C14.2004 13.7262 14.1599 13.3455 14.2176 12.9949C14.6318 10.4789 17.0653 8.46602 19.7042 7.10034C19.8829 7.00787 20.0377 7.03164 20.1717 7.12707C20.3187 7.23167 20.4378 7.42898 20.4235 7.69289L20.2881 10.1878C20.2731 10.4639 20.0907 10.7407 19.7748 10.8752C18.5124 11.4124 17.0695 12.1389 15.7796 13.0221C15.2895 13.3577 14.8054 13.7268 14.3552 14.1289ZM14.5094 18.1488C15.8431 19.2091 17.5221 20.0578 19.2396 20.6181C19.6684 20.758 19.8978 21.1057 19.9027 21.414L19.9169 22.2896C19.921 22.5468 19.7976 22.75 19.6271 22.8652C19.4639 22.9756 19.2742 22.9985 19.08 22.9035C16.5591 21.6699 15.3221 20.547 14.7996 19.6558C14.4855 19.1199 14.4068 18.6318 14.5094 18.1488Z" fill="#80DD80"/>
<path d="M33.1865 23.8548C31.9429 23.8548 30.8468 23.6545 29.8982 23.254C28.9708 22.8535 28.233 22.3055 27.685 21.6099C27.158 20.8932 26.8524 20.0501 26.7681 19.0805H30.1828C30.2671 19.6496 30.5728 20.1133 31.0997 20.4717C31.6267 20.8089 32.3223 20.9775 33.1865 20.9775H34.5461C35.5789 20.9775 36.3588 20.7668 36.8858 20.3452C37.4128 19.9236 37.6762 19.365 37.6762 18.6694C37.6762 17.9949 37.4338 17.468 36.949 17.0885C36.4853 16.688 35.7897 16.4246 34.8623 16.2981L32.6174 15.9503C30.7625 15.6552 29.3924 15.1282 28.5071 14.3694C27.6428 13.5895 27.2107 12.4407 27.2107 10.923C27.2107 9.32107 27.7271 8.08797 28.76 7.22375C29.8139 6.33845 31.3632 5.8958 33.4078 5.8958H34.6093C36.4221 5.8958 37.866 6.31737 38.941 7.16051C40.0371 7.98258 40.6589 9.08921 40.8064 10.4804H37.3917C37.3074 9.97451 37.0228 9.56348 36.538 9.2473C36.0743 8.93112 35.4314 8.77303 34.6093 8.77303H33.4078C32.4171 8.77303 31.6899 8.96274 31.2262 9.34215C30.7835 9.70049 30.5622 10.238 30.5622 10.9547C30.5622 11.587 30.7625 12.0613 31.163 12.3775C31.5634 12.6937 32.1853 12.915 33.0284 13.0414L35.3365 13.4209C37.2968 13.6949 38.7302 14.2429 39.6366 15.065C40.564 15.866 41.0277 17.0358 41.0277 18.5746C41.0277 20.2398 40.4797 21.5361 39.3836 22.4636C38.3086 23.391 36.6961 23.8548 34.5461 23.8548H33.1865Z" fill="#1E1E1E"/>
<path d="M47.8449 23.8864C46.0321 23.8864 44.5988 23.4227 43.5448 22.4952C42.512 21.5467 41.9955 20.2609 41.9955 18.6378C41.9955 16.9937 42.5436 15.7079 43.6397 14.7804C44.7568 13.8319 46.285 13.3576 48.2243 13.3576H53.0618V11.7451C53.0618 10.7966 52.7667 10.0588 52.1765 9.53186C51.5863 9.0049 50.7537 8.74141 49.6787 8.74141C48.7302 8.74141 47.9397 8.9522 47.3074 9.37377C46.675 9.77426 46.3061 10.3118 46.2007 10.9863H42.8492C43.0389 9.42647 43.7556 8.18283 44.9993 7.25537C46.264 6.32791 47.8554 5.86418 49.7736 5.86418C51.8393 5.86418 53.4729 6.39115 54.6743 7.44508C55.8758 8.47793 56.4766 9.8902 56.4766 11.6819V23.5702H53.1567V20.3768H52.5875L53.1567 19.7444C53.1567 21.0092 52.6719 22.0209 51.7022 22.7798C50.7326 23.5175 49.4468 23.8864 47.8449 23.8864ZM48.8566 21.2621C50.0792 21.2621 51.0804 20.9565 51.8603 20.3452C52.6613 19.7128 53.0618 18.9118 53.0618 17.9422V15.6657H48.2875C47.4022 15.6657 46.6961 15.9081 46.1691 16.3929C45.6632 16.8778 45.4103 17.5417 45.4103 18.3849C45.4103 19.2702 45.7159 19.9763 46.3272 20.5033C46.9385 21.0092 47.7816 21.2621 48.8566 21.2621Z" fill="#1E1E1E"/>
<path d="M66.6135 23.8864C65.1802 23.8864 64.042 23.4964 63.1988 22.7165C62.3557 21.9155 61.9341 20.83 61.9341 19.4599L62.6613 20.2503H61.9341V23.5702H58.551V0.489136H61.9657V5.45315L61.8709 9.50024H62.6613L61.9341 10.2907C61.9341 8.92058 62.3557 7.84557 63.1988 7.06566C64.063 6.26468 65.2013 5.86418 66.6135 5.86418C68.3631 5.86418 69.7648 6.45438 70.8187 7.63478C71.8727 8.81519 72.3996 10.4172 72.3996 12.4407V17.3415C72.3996 19.344 71.8727 20.9354 70.8187 22.1158C69.7648 23.2962 68.3631 23.8864 66.6135 23.8864ZM65.4437 20.9143C66.5609 20.9143 67.4356 20.5981 68.068 19.9658C68.7003 19.3123 69.0165 18.3743 69.0165 17.1518V12.5988C69.0165 11.3762 68.7003 10.4488 68.068 9.81642C67.4356 9.16298 66.5609 8.83627 65.4437 8.83627C64.3687 8.83627 63.515 9.17352 62.8826 9.84804C62.2714 10.5015 61.9657 11.4184 61.9657 12.5988V17.1518C61.9657 18.3322 62.2714 19.2596 62.8826 19.9342C63.515 20.5876 64.3687 20.9143 65.4437 20.9143Z" fill="#1E1E1E"/>
<path d="M81.1771 23.8548C79.7437 23.8548 78.5001 23.5808 77.4461 23.0327C76.3922 22.4847 75.5807 21.7048 75.0116 20.693C74.4424 19.6812 74.1579 18.4903 74.1579 17.1202V12.6304C74.1579 11.2392 74.4424 10.0483 75.0116 9.05759C75.5807 8.04582 76.3922 7.26591 77.4461 6.71786C78.5001 6.16982 79.7437 5.8958 81.1771 5.8958C82.6104 5.8958 83.854 6.16982 84.908 6.71786C85.9619 7.26591 86.7734 8.04582 87.3425 9.05759C87.9117 10.0483 88.1962 11.2392 88.1962 12.6304V17.1202C88.1962 18.4903 87.9117 19.6812 87.3425 20.693C86.7734 21.7048 85.9619 22.4847 84.908 23.0327C83.854 23.5808 82.6104 23.8548 81.1771 23.8548ZM81.1771 20.8511C82.3364 20.8511 83.2322 20.5349 83.8646 19.9025C84.4969 19.2491 84.8131 18.3216 84.8131 17.1202V12.6304C84.8131 11.4079 84.4969 10.4804 83.8646 9.84804C83.2322 9.21568 82.3364 8.8995 81.1771 8.8995C80.0388 8.8995 79.143 9.21568 78.4895 9.84804C77.8572 10.4804 77.541 11.4079 77.541 12.6304V17.1202C77.541 18.3216 77.8572 19.2491 78.4895 19.9025C79.143 20.5349 80.0388 20.8511 81.1771 20.8511Z" fill="#1E1E1E"/>
<path fill-rule="evenodd" clip-rule="evenodd" d="M29.7042 23.7032C28.7127 23.2751 27.9057 22.6807 27.3006 21.9127L27.2956 21.9063L27.2908 21.8998C26.7056 21.104 26.3719 20.1733 26.2806 19.1229L26.2344 18.5913H30.6048L30.6666 19.0088C30.7283 19.4255 30.9453 19.7734 31.369 20.0633C31.7922 20.3322 32.3849 20.4884 33.1864 20.4884H34.546C35.5237 20.4884 36.1753 20.2871 36.5801 19.9632C36.9869 19.6378 37.1869 19.2218 37.1869 18.6695C37.1869 18.1289 37.0013 17.7508 36.6474 17.4738L36.6381 17.4666L36.6292 17.4588C36.2656 17.1449 35.6757 16.9028 34.796 16.7829L34.7916 16.7823L32.5404 16.4335C30.6455 16.132 29.1725 15.5842 28.1886 14.7409L28.1838 14.7368L28.1792 14.7326C27.1832 13.8338 26.7214 12.5347 26.7214 10.9231C26.7214 9.20682 27.2806 7.82394 28.4456 6.84893C29.6217 5.86121 31.3023 5.40666 33.4077 5.40666H34.6092C36.4934 5.40666 38.0535 5.84473 39.2386 6.77239C40.4434 7.67762 41.1314 8.90754 41.2928 10.4289L41.3501 10.9697H36.9772L36.909 10.5609C36.8502 10.2081 36.6571 9.90912 36.2707 9.65711L36.2665 9.65437L36.2623 9.65155C35.9095 9.41097 35.3763 9.26229 34.6092 9.26229H33.4077C32.4618 9.26229 31.871 9.44661 31.5359 9.72083L31.5339 9.72244C31.2348 9.96452 31.0513 10.344 31.0513 10.9547C31.0513 11.4769 31.2108 11.7921 31.466 11.9936C31.7688 12.2326 32.2919 12.4364 33.1009 12.5577L33.1077 12.5587L35.41 12.9373C37.407 13.2171 38.9501 13.7846 39.9607 14.6987C40.9641 15.5677 41.4635 16.799 41.5128 18.3213C41.5805 16.7015 42.1749 15.3792 43.3233 14.4073C44.554 13.3625 46.207 12.8685 48.2242 12.8685H52.5725V11.7452C52.5725 10.9058 52.3163 10.3126 51.8506 9.89683C51.3779 9.47479 50.6769 9.23067 49.6786 9.23067C48.8026 9.23067 48.1127 9.42479 47.5786 9.78086L47.5738 9.78404L47.569 9.78711C47.0428 10.1204 46.7653 10.541 46.684 11.0619L46.6193 11.4755H42.2968L42.3635 10.9273C42.5691 9.23662 43.3543 7.87185 44.7067 6.86328L44.7098 6.86093C46.0757 5.85928 47.7749 5.37505 49.7734 5.37505C51.9213 5.37505 53.681 5.92404 54.995 7.07583C56.3182 8.21424 56.9656 9.76946 56.9656 11.6819V24.0595H52.6674V22.5324C52.4745 22.7587 52.2532 22.9698 52.0036 23.1651L51.9984 23.1692C50.9202 23.9895 49.5201 24.3756 47.8448 24.3756C45.9485 24.3756 44.3883 23.8892 43.2215 22.8625L43.2176 22.8591L43.2138 22.8556C42.1208 21.8518 41.5629 20.5145 41.5104 18.8936C41.443 20.5299 40.8504 21.8624 39.7013 22.8355C38.5017 23.8695 36.7541 24.344 34.546 24.344H33.1864C31.8907 24.344 30.7277 24.1354 29.7078 23.7048L29.7042 23.7032ZM52.6674 21.6897C52.8161 21.4329 52.9309 21.1583 53.0118 20.8661C53.0397 20.7652 53.0636 20.6621 53.0835 20.557C53.0947 20.4976 53.1046 20.4376 53.1132 20.3769H53.1566V23.5703H56.4764V11.6819C56.4764 9.89025 55.8757 8.47799 54.6742 7.44514C53.4727 6.39121 51.8391 5.86424 49.7734 5.86424C47.8553 5.86424 46.2639 6.32797 44.9991 7.25543C43.8884 8.08378 43.198 9.16436 42.928 10.4971C42.8957 10.6566 42.8694 10.8197 42.8491 10.9863H46.2006C46.306 10.3118 46.6749 9.77432 47.3072 9.37383C47.9396 8.95226 48.7301 8.74147 49.6786 8.74147C50.7536 8.74147 51.5862 9.00495 52.1764 9.53192C52.7666 10.0589 53.0617 10.7966 53.0617 11.7452V13.3577H48.2242C46.2849 13.3577 44.7567 13.832 43.6396 14.7805C42.5435 15.708 41.9954 16.9937 41.9954 18.6379C41.9954 20.2609 42.5119 21.5467 43.5447 22.4953C44.5986 23.4227 46.032 23.8864 47.8448 23.8864C49.4467 23.8864 50.7325 23.5176 51.7021 22.7798C52.1094 22.4611 52.4312 22.0977 52.6674 21.6897ZM39.6364 15.0651C38.7301 14.243 37.2967 13.6949 35.3364 13.4209L33.0283 13.0415C32.1852 12.915 31.5633 12.6937 31.1628 12.3775C30.7624 12.0614 30.5621 11.5871 30.5621 10.9547C30.5621 10.2381 30.7834 9.70055 31.2261 9.34221C31.6898 8.9628 32.417 8.77309 33.4077 8.77309H34.6092C35.4313 8.77309 36.0742 8.93118 36.5379 9.24736C37.0227 9.56354 37.3073 9.97457 37.3916 10.4805H40.8063C40.7886 10.3133 40.764 10.1502 40.7326 9.99126C40.5025 8.82742 39.9052 7.88386 38.9409 7.16057C37.8658 6.31743 36.422 5.89586 34.6092 5.89586H33.4077C31.3631 5.89586 29.8138 6.33851 28.7599 7.22381C27.727 8.08803 27.2106 9.32113 27.2106 10.9231C27.2106 12.4408 27.6427 13.5896 28.5069 14.3695C29.3922 15.1283 30.7624 15.6553 32.6173 15.9504L34.8621 16.2982C35.7896 16.4246 36.4852 16.6881 36.9489 17.0886C37.4337 17.468 37.6761 17.995 37.6761 18.6695C37.6761 19.3651 37.4127 19.9237 36.8857 20.3452C36.3587 20.7668 35.5788 20.9776 34.546 20.9776H33.1864C32.3222 20.9776 31.6266 20.809 31.0996 20.4717C30.5726 20.1134 30.267 19.6497 30.1827 19.0805H26.768C26.7825 19.2473 26.8035 19.4104 26.8311 19.5697C26.964 20.3365 27.2486 21.0166 27.6849 21.61C28.2329 22.3056 28.9707 22.8536 29.8981 23.2541C30.8467 23.6546 31.9428 23.8548 33.1864 23.8548H34.546C36.696 23.8548 38.3085 23.3911 39.3835 22.4636C40.4796 21.5362 41.0276 20.2399 41.0276 18.5746C41.0276 17.0359 40.5639 15.866 39.6364 15.0651ZM51.5578 19.9607C50.8827 20.4896 49.9955 20.773 48.8565 20.773C47.8575 20.773 47.1395 20.5388 46.6428 20.1296C46.153 19.7056 45.8994 19.1415 45.8994 18.3849C45.8994 17.6482 46.1158 17.1235 46.5039 16.7496C46.9202 16.3685 47.4968 16.155 48.2874 16.155H52.5725V17.9423C52.5725 18.753 52.2479 19.4156 51.5578 19.9607ZM53.0617 15.6658V17.9423C53.0617 18.9119 52.6612 19.7129 51.8602 20.3452C51.0803 20.9565 50.0791 21.2622 48.8565 21.2622C47.7815 21.2622 46.9384 21.0092 46.3271 20.5033C45.7158 19.9764 45.4102 19.2702 45.4102 18.3849C45.4102 17.5418 45.6631 16.8778 46.169 16.393C46.696 15.9082 47.4021 15.6658 48.2874 15.6658H53.0617ZM62.8618 23.0713C62.7017 22.9192 62.5556 22.7584 62.4232 22.5891V24.0595H58.0617V0H62.4548V5.45894L62.4141 7.19483C62.5502 7.02266 62.7009 6.85981 62.8665 6.7066C63.8385 5.80592 65.1039 5.37505 66.6134 5.37505C68.4859 5.37505 70.0264 6.01301 71.1835 7.30903C72.3379 8.60187 72.8887 10.3316 72.8887 12.4408V17.3415C72.8887 19.4312 72.337 21.1497 71.1835 22.4417C70.0264 23.7377 68.4859 24.3756 66.6134 24.3756C65.0888 24.3756 63.821 23.9586 62.8665 23.0757L62.8618 23.0713ZM63.1987 7.06572C62.863 7.37629 62.5941 7.73364 62.392 8.13779C62.2569 8.40798 62.1517 8.69909 62.0764 9.0111C62.0383 9.16883 62.0079 9.33189 61.9851 9.5003H61.8708L61.9656 5.45321V0.489196H58.5509V23.5703H61.934V20.2504H61.9849C62.0076 20.4186 62.0378 20.5816 62.0756 20.7396C62.1566 21.0786 62.2725 21.3941 62.4232 21.6861C62.6214 22.0703 62.8799 22.4138 63.1987 22.7166C64.0418 23.4965 65.1801 23.8864 66.6134 23.8864C68.363 23.8864 69.7647 23.2962 70.8186 22.1158C71.8726 20.9354 72.3995 19.344 72.3995 17.3415V12.4408C72.3995 10.4172 71.8726 8.81525 70.8186 7.63484C69.7647 6.45444 68.363 5.86424 66.6134 5.86424C65.2012 5.86424 64.0629 6.26474 63.1987 7.06572ZM62.4164 19.2618C62.5445 19.5085 62.6999 19.7327 62.8825 19.9342C62.9018 19.9541 62.9213 19.9737 62.9409 19.993C63.1045 20.1534 63.2822 20.2929 63.474 20.4114C64.017 20.7467 64.6735 20.9144 65.4436 20.9144C66.5607 20.9144 67.4355 20.5982 68.0679 19.9658C68.7002 19.3124 69.0164 18.3744 69.0164 17.1518V12.5989C69.0164 11.3763 68.7002 10.4488 68.0679 9.81648C67.4355 9.16304 66.5607 8.83632 65.4436 8.83632C64.6559 8.83632 63.9871 9.01737 63.4371 9.37947C63.2653 9.49259 63.105 9.62339 62.9564 9.77186C62.9314 9.79678 62.9068 9.82219 62.8825 9.8481C62.7093 10.0333 62.5606 10.2396 62.4365 10.4671C62.1226 11.0424 61.9656 11.753 61.9656 12.5989V17.1518C61.9656 17.9795 62.1159 18.6828 62.4164 19.2618ZM63.2394 10.1827C62.7373 10.7196 62.4548 11.5022 62.4548 12.5989V17.1518C62.4548 18.244 62.7351 19.0397 63.2397 19.5998C63.7627 20.137 64.4784 20.4252 65.4436 20.4252C66.4633 20.4252 67.2002 20.14 67.7191 19.6228C68.2345 19.0884 68.5272 18.2902 68.5272 17.1518V12.5989C68.5272 11.4573 68.233 10.6735 67.7219 10.1624L67.7191 10.1596L67.7163 10.1567C67.1964 9.61945 66.4606 9.32552 65.4436 9.32552C64.48 9.32552 63.7644 9.62293 63.2398 10.1823M81.1769 24.344C79.6811 24.344 78.357 24.0578 77.2203 23.4668C76.0842 22.876 75.2019 22.0295 74.5851 20.9329C73.9679 19.8357 73.6686 18.5591 73.6686 17.1202V12.6305C73.6686 11.1732 73.9668 9.8949 74.5862 8.81589C75.203 7.72018 76.0848 6.87437 77.2203 6.2839C78.357 5.69285 79.6811 5.40666 81.1769 5.40666C82.6728 5.40666 83.9969 5.69285 85.1336 6.2839C86.2691 6.87437 87.1509 7.72018 87.7677 8.81589C88.3871 9.8949 88.6853 11.1732 88.6853 12.6305V17.1202C88.6853 18.5591 88.386 19.8357 87.7688 20.9329C87.1519 22.0295 86.2697 22.876 85.1336 23.4668C83.9969 24.0578 82.6728 24.344 81.1769 24.344ZM87.3424 9.05765C86.7733 8.04588 85.9618 7.26597 84.9079 6.71792C83.8539 6.16988 82.6103 5.89586 81.1769 5.89586C79.7436 5.89586 78.5 6.16988 77.446 6.71792C76.3921 7.26597 75.5806 8.04588 75.0114 9.05765C74.4423 10.0483 74.1578 11.2393 74.1578 12.6305V17.1202C74.1578 18.4903 74.4423 19.6813 75.0114 20.693C75.5806 21.7048 76.3921 22.4847 77.446 23.0328C78.5 23.5808 79.7436 23.8548 81.1769 23.8548C82.6103 23.8548 83.8539 23.5808 84.9079 23.0328C85.9618 22.4847 86.7733 21.7048 87.3424 20.693C87.9116 19.6813 88.1961 18.4903 88.1961 17.1202V12.6305C88.1961 11.2393 87.9116 10.0483 87.3424 9.05765ZM83.5157 19.5595C84.0326 19.0237 84.3238 18.2348 84.3238 17.1202V12.6305C84.3238 11.4889 84.0296 10.7051 83.5186 10.194C83.0029 9.67833 82.2466 9.38876 81.1769 9.38876C80.1339 9.38876 79.3729 9.67544 78.8325 10.1969C78.3232 10.708 78.0301 11.491 78.0301 12.6305V17.1202C78.0301 18.2328 78.3203 19.0208 78.8354 19.5566C79.3757 20.0763 80.1358 20.3619 81.1769 20.3619C82.2447 20.3619 83.0001 20.0734 83.5157 19.5595ZM78.4894 19.9026C77.8571 19.2492 77.5409 18.3217 77.5409 17.1202V12.6305C77.5409 11.4079 77.8571 10.4805 78.4894 9.8481C79.1429 9.21574 80.0387 8.89956 81.1769 8.89956C82.3363 8.89956 83.2321 9.21574 83.8645 9.8481C84.4968 10.4805 84.813 11.4079 84.813 12.6305V17.1202C84.813 18.3217 84.4968 19.2492 83.8645 19.9026C83.2321 20.535 82.3363 20.8511 81.1769 20.8511C80.0387 20.8511 79.1429 20.535 78.4894 19.9026Z" fill="#1E1E1E"/>
</svg>
