<svg width="101" height="30" viewBox="0 0 101 30" fill="none" xmlns="http://www.w3.org/2000/svg">
<path fill-rule="evenodd" clip-rule="evenodd" d="M0.06981 9.29228C-0.146514 6.79821 2.32177 4.58058 4.88778 5.80515C8.04202 7.31043 12.0376 10.0286 12.8812 14.2897C13.177 15.7834 12.772 17.1774 12.0171 18.3896C12.0437 18.4333 12.0699 18.4774 12.0954 18.5216C12.9903 20.0702 13.1932 21.8929 12.1763 23.7636C11.2245 25.5146 9.28195 27.1602 6.28163 28.7504C3.8681 30.0297 1.21043 28.1644 1.16964 25.6388L1.15359 24.6447C1.12595 22.9333 2.27862 21.5487 3.73558 21.0207C5.50614 20.3791 7.13754 19.4487 8.31785 18.3995C7.88686 18.0267 7.38569 17.6591 6.8267 17.3023C5.53261 16.4763 4.04835 15.7831 2.71187 15.2646C1.41777 14.7626 0.441423 13.5767 0.314927 12.1183L0.06981 9.29228ZM10.0007 16.1292C10.1616 15.6666 10.1936 15.2332 10.1152 14.8374C9.553 11.9976 6.71788 9.80281 3.67336 8.34989C3.46722 8.25151 3.29252 8.28416 3.14389 8.39736C2.98098 8.52144 2.853 8.7497 2.87893 9.04863L3.12405 11.8747C3.15117 12.1874 3.36831 12.4949 3.73165 12.6358C5.18382 13.1992 6.84774 13.9706 8.34383 14.9256C8.91222 15.2884 9.47516 15.6895 10.0007 16.1292ZM9.97308 20.6964C8.4986 21.9483 6.62457 22.9729 4.69624 23.6717C4.2148 23.8462 3.96724 24.2491 3.97289 24.5992L3.98894 25.5932C3.99366 25.8852 4.14118 26.1112 4.3389 26.2358C4.52815 26.355 4.74424 26.3741 4.96113 26.2591C7.7764 24.7669 9.13889 23.4474 9.699 22.417C10.0358 21.7974 10.1073 21.2406 9.97308 20.6964Z" fill="#1E1E1E"/>
<path fill-rule="evenodd" clip-rule="evenodd" d="M26.0025 8.8868C26.1381 6.38704 23.5995 4.25028 21.0744 5.55707C17.9704 7.16342 14.0647 10.0092 13.3591 14.2954C13.1118 15.7978 13.5615 17.178 14.3552 18.3652C14.33 18.4098 14.3053 18.4546 14.2812 18.4996C13.4367 20.0763 13.2928 21.9046 14.3696 23.7416C15.3775 25.4609 17.3721 27.0429 20.4222 28.5354C22.8758 29.7361 25.4719 27.7859 25.4311 25.2603L25.415 24.2662C25.3874 22.5548 24.1906 21.2082 22.7174 20.7275C20.927 20.1434 19.2664 19.2662 18.0528 18.2556C18.4716 17.8691 18.9606 17.4855 19.5078 17.1109C20.7745 16.2434 22.2356 15.5027 23.5547 14.9413C24.8319 14.3978 25.7694 13.181 25.8487 11.7193L26.0025 8.8868ZM16.2976 16.0408C16.1217 15.5837 16.0758 15.1515 16.1413 14.7534C16.6116 11.897 19.3744 9.61175 22.3704 8.06127C22.5732 7.95629 22.7489 7.98327 22.9011 8.09162C23.0679 8.21038 23.2032 8.43438 23.1869 8.734L23.0332 11.5665C23.0162 11.8799 22.8091 12.1942 22.4505 12.3469C21.0173 12.9568 19.3792 13.7815 17.9147 14.7844C17.3583 15.1653 16.8086 15.5844 16.2976 16.0408ZM16.4726 20.6047C17.9868 21.8084 19.8929 22.772 21.8428 23.4081C22.3296 23.567 22.5901 23.9617 22.5957 24.3118L22.6118 25.3058C22.6165 25.5978 22.4763 25.8284 22.2828 25.9593C22.0975 26.0846 21.8821 26.1106 21.6616 26.0027C18.7996 24.6022 17.3952 23.3274 16.8021 22.3156C16.4455 21.7072 16.3561 21.1531 16.4726 20.6047Z" fill="#1E1E1E"/>
<path d="M37.6771 27.0824C36.2651 27.0824 35.0207 26.8551 33.9439 26.4004C32.8909 25.9457 32.0533 25.3235 31.4311 24.5338C30.8329 23.7201 30.4859 22.7629 30.3901 21.6621H34.2669C34.3626 22.3082 34.7096 22.8347 35.3079 23.2415C35.9062 23.6244 36.6959 23.8159 37.6771 23.8159H39.2206C40.3932 23.8159 41.2786 23.5766 41.8769 23.0979C42.4752 22.6193 42.7743 21.9852 42.7743 21.1954C42.7743 20.4297 42.4991 19.8314 41.9487 19.4006C41.4222 18.946 40.6325 18.6468 39.5795 18.5032L37.0309 18.1084C34.925 17.7733 33.3695 17.1751 32.3644 16.3136C31.3833 15.4281 30.8927 14.1239 30.8927 12.4009C30.8927 10.5822 31.479 9.18221 32.6516 8.20105C33.8481 7.19596 35.607 6.69341 37.9283 6.69341H39.2924C41.3504 6.69341 42.9897 7.17203 44.2101 8.12926C45.4545 9.06256 46.1605 10.3189 46.328 11.8983H42.4512C42.3555 11.324 42.0324 10.8574 41.482 10.4984C40.9556 10.1394 40.2257 9.95996 39.2924 9.95996H37.9283C36.8036 9.95996 35.978 10.1753 35.4515 10.6061C34.9489 11.0129 34.6977 11.6231 34.6977 12.4368C34.6977 13.1547 34.925 13.6932 35.3797 14.0521C35.8344 14.4111 36.5403 14.6624 37.4976 14.8059L40.118 15.2367C42.3435 15.5478 43.9708 16.17 44.9999 17.1033C46.0528 18.0127 46.5793 19.3408 46.5793 21.0878C46.5793 22.9783 45.9571 24.45 44.7127 25.503C43.4922 26.5559 41.6615 27.0824 39.2206 27.0824H37.6771Z" fill="#1E1E1E"/>
<path d="M54.3188 27.1183C52.2608 27.1183 50.6335 26.5918 49.437 25.5389C48.2643 24.462 47.678 23.0022 47.678 21.1595C47.678 19.2929 48.3002 17.8332 49.5446 16.7802C50.813 15.7033 52.548 15.1649 54.7496 15.1649H60.2417V13.3342C60.2417 12.2573 59.9067 11.4197 59.2366 10.8215C58.5665 10.2232 57.6213 9.92406 56.4008 9.92406C55.3239 9.92406 54.4265 10.1634 53.7086 10.642C52.9907 11.0967 52.5719 11.7069 52.4522 12.4727H48.6472C48.8626 10.7018 49.6763 9.2899 51.0882 8.23694C52.524 7.18399 54.3308 6.65752 56.5085 6.65752C58.8537 6.65752 60.7083 7.25578 62.0724 8.45232C63.4364 9.62493 64.1185 11.2283 64.1185 13.2624V26.7593H60.3494V23.1338H59.7032L60.3494 22.4159C60.3494 23.8518 59.799 25.0004 58.6982 25.8619C57.5973 26.6995 56.1376 27.1183 54.3188 27.1183ZM55.4675 24.1389C56.8555 24.1389 57.9922 23.7919 58.8776 23.0979C59.787 22.38 60.2417 21.4706 60.2417 20.3698V17.7853H54.8214C53.8163 17.7853 53.0146 18.0605 52.4163 18.6109C51.842 19.1613 51.5548 19.9151 51.5548 20.8724C51.5548 21.8775 51.9018 22.6792 52.5958 23.2774C53.2898 23.8518 54.247 24.1389 55.4675 24.1389Z" fill="#1E1E1E"/>
<path d="M75.6271 27.1183C73.9998 27.1183 72.7075 26.6756 71.7503 25.7901C70.7931 24.8808 70.3145 23.6483 70.3145 22.0928L71.1401 22.9903H70.3145V26.7593H66.4736V0.555176H70.3504V6.19087L70.2427 10.7856H71.1401L70.3145 11.683C70.3145 10.1275 70.7931 8.90701 71.7503 8.02157C72.7315 7.1122 74.0237 6.65752 75.6271 6.65752C77.6133 6.65752 79.2047 7.32758 80.4013 8.6677C81.5978 10.0078 82.1961 11.8266 82.1961 14.1239V19.6878C82.1961 21.9612 81.5978 23.768 80.4013 25.1081C79.2047 26.4482 77.6133 27.1183 75.6271 27.1183ZM74.2989 23.7441C75.5673 23.7441 76.5604 23.3851 77.2783 22.6672C77.9962 21.9253 78.3552 20.8604 78.3552 19.4724V14.3034C78.3552 12.9154 77.9962 11.8625 77.2783 11.1445C76.5604 10.4027 75.5673 10.0318 74.2989 10.0318C73.0785 10.0318 72.1093 10.4146 71.3914 11.1804C70.6974 11.9223 70.3504 12.9633 70.3504 14.3034V19.4724C70.3504 20.8126 70.6974 21.8655 71.3914 22.6313C72.1093 23.3731 73.0785 23.7441 74.2989 23.7441Z" fill="#1E1E1E"/>
<path d="M92.1612 27.0824C90.5339 27.0824 89.122 26.7713 87.9254 26.1491C86.7289 25.5269 85.8076 24.6415 85.1614 23.4928C84.5153 22.3441 84.1922 20.992 84.1922 19.4365V14.3393C84.1922 12.7599 84.5153 11.4078 85.1614 10.283C85.8076 9.13435 86.7289 8.24891 87.9254 7.62671C89.122 7.00451 90.5339 6.69341 92.1612 6.69341C93.7885 6.69341 95.2004 7.00451 96.3969 7.62671C97.5935 8.24891 98.5148 9.13435 99.1609 10.283C99.8071 11.4078 100.13 12.7599 100.13 14.3393V19.4365C100.13 20.992 99.8071 22.3441 99.1609 23.4928C98.5148 24.6415 97.5935 25.5269 96.3969 26.1491C95.2004 26.7713 93.7885 27.0824 92.1612 27.0824ZM92.1612 23.6723C93.4774 23.6723 94.4944 23.3133 95.2124 22.5954C95.9303 21.8535 96.2892 20.8006 96.2892 19.4365V14.3393C96.2892 12.9513 95.9303 11.8984 95.2124 11.1804C94.4944 10.4625 93.4774 10.1035 92.1612 10.1035C90.8689 10.1035 89.8519 10.4625 89.11 11.1804C88.3921 11.8984 88.0331 12.9513 88.0331 14.3393V19.4365C88.0331 20.8006 88.3921 21.8535 89.11 22.5954C89.8519 23.3133 90.8689 23.6723 92.1612 23.6723Z" fill="#1E1E1E"/>
<path fill-rule="evenodd" clip-rule="evenodd" d="M33.7235 26.9105C32.5979 26.4244 31.6816 25.7496 30.9947 24.8777L30.989 24.8705L30.9835 24.863C30.3192 23.9596 29.9404 22.9029 29.8367 21.7104L29.7842 21.1069H34.7459L34.8161 21.5809C34.8862 22.0539 35.1326 22.449 35.6136 22.7781C36.0941 23.0833 36.7669 23.2607 37.6769 23.2607H39.2204C40.3305 23.2607 41.0702 23.0321 41.5298 22.6645C41.9917 22.295 42.2187 21.8227 42.2187 21.1957C42.2187 20.5819 42.008 20.1527 41.6062 19.8382L41.5957 19.83L41.5855 19.8212C41.1728 19.4647 40.503 19.1899 39.5043 19.0537L39.4993 19.0531L36.9435 18.6571C34.7922 18.3148 33.1199 17.6929 32.0028 16.7355L31.9974 16.7309L31.9922 16.7261C30.8614 15.7057 30.3371 14.2308 30.3371 12.4011C30.3371 10.4526 30.9719 8.8826 32.2946 7.77566C33.6298 6.65429 35.5378 6.13824 37.9281 6.13824H39.2922C41.4314 6.13824 43.2025 6.63558 44.548 7.68875C45.9158 8.71648 46.6969 10.1128 46.8801 11.84L46.9452 12.454H41.9806L41.9032 11.9899C41.8365 11.5894 41.6172 11.2499 41.1785 10.9638L41.1737 10.9607L41.169 10.9575C40.7684 10.6844 40.1631 10.5156 39.2922 10.5156H37.9281C36.8543 10.5156 36.1835 10.7248 35.803 11.0362L35.8008 11.038C35.4612 11.3128 35.2529 11.7437 35.2529 12.437C35.2529 13.0298 35.434 13.3877 35.7237 13.6164C36.0674 13.8878 36.6614 14.1191 37.5798 14.2569L37.5875 14.2581L40.2013 14.6878C42.4686 15.0055 44.2205 15.6498 45.3678 16.6876C46.507 17.6741 47.074 19.0721 47.1299 20.8003C47.2068 18.9614 47.8816 17.4601 49.1854 16.3568C50.5826 15.1706 52.4593 14.6097 54.7494 14.6097H59.6861V13.3344C59.6861 12.3814 59.3952 11.708 58.8665 11.236C58.3299 10.7568 57.534 10.4797 56.4006 10.4797C55.4061 10.4797 54.6229 10.7001 54.0165 11.1043L54.0111 11.1079L54.0056 11.1114C53.4082 11.4897 53.0932 11.9673 53.0008 12.5586L52.9274 13.0283H48.02L48.0957 12.4058C48.3292 10.4864 49.2206 8.93698 50.756 7.79194L50.7596 7.78928C52.3102 6.6521 54.2394 6.10234 56.5083 6.10234C58.9468 6.10234 60.9446 6.72561 62.4365 8.03325C63.9386 9.32571 64.6737 11.0914 64.6737 13.2626V27.3149H59.7938V25.5813C59.5748 25.8382 59.3236 26.0778 59.0403 26.2995L59.0343 26.3042C57.8103 27.2355 56.2206 27.6739 54.3187 27.6739C52.1659 27.6739 50.3945 27.1217 49.0699 25.956L49.0654 25.9521L49.0611 25.9481C47.8202 24.8086 47.1868 23.2903 47.1271 21.4501C47.0507 23.3078 46.3779 24.8206 45.0734 25.9254C43.7114 27.0993 41.7273 27.638 39.2204 27.638H37.6769C36.2058 27.638 34.8855 27.4011 33.7276 26.9122L33.7235 26.9105ZM59.7938 24.6245C59.9626 24.3329 60.093 24.0212 60.1848 23.6894C60.2165 23.5749 60.2437 23.4579 60.2662 23.3386C60.2789 23.2712 60.2902 23.203 60.3 23.134H60.3492V26.7596H64.1183V13.2626C64.1183 11.2285 63.4363 9.62514 62.0722 8.45253C60.7082 7.256 58.8535 6.65773 56.5083 6.65773C54.3306 6.65773 52.5238 7.18421 51.088 8.23716C49.827 9.1776 49.0432 10.4044 48.7366 11.9175C48.6999 12.0985 48.6701 12.2837 48.6471 12.4729H52.4521C52.5717 11.7071 52.9905 11.0969 53.7084 10.6422C54.4263 10.1636 55.3237 9.92428 56.4006 9.92428C57.6211 9.92428 58.5664 10.2234 59.2364 10.8217C59.9065 11.4199 60.2415 12.2575 60.2415 13.3344V15.1651H54.7494C52.5478 15.1651 50.8128 15.7036 49.5445 16.7804C48.3001 17.8334 47.6779 19.2932 47.6779 21.1598C47.6779 23.0024 48.2642 24.4622 49.4368 25.5391C50.6333 26.592 52.2606 27.1185 54.3187 27.1185C56.1374 27.1185 57.5972 26.6997 58.698 25.8622C59.1604 25.5003 59.5256 25.0877 59.7938 24.6245ZM44.9997 17.1035C43.9707 16.1702 42.3434 15.548 40.1178 15.2369L37.4974 14.8061C36.5402 14.6626 35.8342 14.4113 35.3795 14.0523C34.9248 13.6934 34.6975 13.1549 34.6975 12.437C34.6975 11.6234 34.9488 11.0131 35.4513 10.6063C35.9778 10.1755 36.8034 9.96017 37.9281 9.96017H39.2922C40.2255 9.96017 40.9554 10.1397 41.4819 10.4986C42.0323 10.8576 42.3553 11.3242 42.4511 11.8986H46.3278C46.3077 11.7088 46.2798 11.5236 46.2441 11.3432C45.9829 10.0219 45.3048 8.95062 44.21 8.12947C42.9895 7.17224 41.3502 6.69363 39.2922 6.69363H37.9281C35.6069 6.69363 33.848 7.19617 32.6514 8.20126C31.4788 9.18242 30.8925 10.5824 30.8925 12.4011C30.8925 14.1241 31.3831 15.4283 32.3642 16.3138C33.3693 17.1753 34.9248 17.7736 37.0307 18.1086L39.5794 18.5035C40.6323 18.647 41.422 18.9462 41.9485 19.4009C42.4989 19.8316 42.7741 20.4299 42.7741 21.1957C42.7741 21.9854 42.475 22.6195 41.8767 23.0982C41.2785 23.5768 40.393 23.8161 39.2204 23.8161H37.6769C36.6957 23.8161 35.906 23.6246 35.3077 23.2417C34.7095 22.8349 34.3625 22.3084 34.2667 21.6623H30.39C30.4064 21.8517 30.4303 22.0368 30.4617 22.2177C30.6125 23.0882 30.9356 23.8603 31.4309 24.534C32.0531 25.3237 32.8907 25.9459 33.9437 26.4006C35.0206 26.8553 36.265 27.0826 37.6769 27.0826H39.2204C41.6613 27.0826 43.492 26.5561 44.7125 25.5032C45.9569 24.4502 46.5791 22.9785 46.5791 21.088C46.5791 19.341 46.0526 18.0129 44.9997 17.1035ZM58.5341 22.6616C57.7676 23.2621 56.7604 23.5838 55.4673 23.5838C54.3332 23.5838 53.5179 23.3179 52.9541 22.8533C52.398 22.372 52.11 21.7316 52.11 20.8726C52.11 20.0362 52.3557 19.4405 52.7964 19.016C53.269 18.5833 53.9236 18.3409 54.8212 18.3409H59.6861V20.37C59.6861 21.2905 59.3176 22.0427 58.5341 22.6616ZM60.2415 17.7855V20.37C60.2415 21.4709 59.7868 22.3802 58.8775 23.0982C57.992 23.7921 56.8553 24.1391 55.4673 24.1391C54.2469 24.1391 53.2896 23.852 52.5956 23.2776C51.9016 22.6794 51.5546 21.8777 51.5546 20.8726C51.5546 19.9154 51.8418 19.1615 52.4162 18.6111C53.0144 18.0607 53.8161 17.7855 54.8212 17.7855H60.2415ZM71.3676 26.193C71.1859 26.0204 71.02 25.8378 70.8697 25.6456V27.3149H65.918V0H70.9056V6.19759L70.8594 8.16836C71.0138 7.97289 71.185 7.78801 71.373 7.61407C72.4765 6.59151 73.9132 6.10234 75.6269 6.10234C77.7527 6.10234 79.5017 6.82663 80.8154 8.29801C82.1259 9.76579 82.7513 11.7295 82.7513 14.1241V19.688C82.7513 22.0604 82.125 24.0115 80.8154 25.4782C79.5017 26.9496 77.7527 27.6739 75.6269 27.6739C73.896 27.6739 72.4567 27.2005 71.373 26.1981L71.3676 26.193ZM71.7501 8.02178C71.369 8.37437 71.0637 8.78008 70.8343 9.23891C70.6809 9.54566 70.5615 9.87616 70.476 10.2304C70.4328 10.4095 70.3982 10.5946 70.3723 10.7858H70.2425L70.3502 6.19108V0.555389H66.4734V26.7596H70.3143V22.9905H70.3721C70.3978 23.1814 70.4321 23.3665 70.475 23.5459C70.5671 23.9307 70.6986 24.2889 70.8697 24.6204C71.0948 25.0566 71.3882 25.4466 71.7501 25.7904C72.7074 26.6758 73.9996 27.1185 75.6269 27.1185C77.6132 27.1185 79.2046 26.4485 80.4011 25.1083C81.5976 23.7682 82.1959 21.9614 82.1959 19.688V14.1241C82.1959 11.8268 81.5976 10.008 80.4011 8.66791C79.2046 7.32779 77.6132 6.65773 75.6269 6.65773C74.0236 6.65773 72.7313 7.11241 71.7501 8.02178ZM70.862 21.8681C71.0074 22.1482 71.1838 22.4027 71.3912 22.6315C71.4131 22.6541 71.4352 22.6764 71.4575 22.6983C71.6431 22.8804 71.8449 23.0387 72.0627 23.1733C72.6791 23.5539 73.4245 23.7443 74.2988 23.7443C75.5671 23.7443 76.5602 23.3853 77.2781 22.6674C77.9961 21.9255 78.355 20.8606 78.355 19.4726V14.3036C78.355 12.9156 77.9961 11.8627 77.2781 11.1447C76.5602 10.4029 75.5671 10.032 74.2988 10.032C73.4046 10.032 72.6452 10.2375 72.0208 10.6486C71.8257 10.777 71.6438 10.9255 71.475 11.0941C71.4467 11.1224 71.4188 11.1512 71.3912 11.1806C71.1945 11.3909 71.0257 11.6251 70.8848 11.8834C70.5284 12.5365 70.3502 13.3433 70.3502 14.3036V19.4726C70.3502 20.4123 70.5208 21.2108 70.862 21.8681ZM71.7964 11.5605C71.2264 12.1701 70.9056 13.0585 70.9056 14.3036V19.4726C70.9056 20.7126 71.2239 21.6159 71.7966 22.2518C72.3904 22.8617 73.203 23.1889 74.2988 23.1889C75.4565 23.1889 76.2931 22.8651 76.8822 22.2779C77.4673 21.6712 77.7996 20.765 77.7996 19.4726V14.3036C77.7996 13.0076 77.4657 12.1177 76.8854 11.5375L76.8822 11.5342L76.879 11.531C76.2888 10.9211 75.4534 10.5874 74.2988 10.5874C73.2048 10.5874 72.3924 10.925 71.7968 11.5601M92.161 27.638C90.4628 27.638 88.9595 27.3131 87.669 26.6421C86.3791 25.9713 85.3775 25.0103 84.6772 23.7653C83.9765 22.5196 83.6367 21.0704 83.6367 19.4367V14.3395C83.6367 12.685 83.9753 11.2338 84.6784 10.0088C85.3787 8.76479 86.3799 7.80454 87.669 7.13417C88.9595 6.46315 90.4628 6.13824 92.161 6.13824C93.8592 6.13824 95.3626 6.46315 96.653 7.13417C97.9422 7.80454 98.9433 8.76479 99.6436 10.0088C100.347 11.2338 100.685 12.685 100.685 14.3395V19.4367C100.685 21.0704 100.345 22.5196 99.6448 23.7653C98.9445 25.0103 97.9429 25.9713 96.653 26.6421C95.3626 27.3131 93.8592 27.638 92.161 27.638ZM99.1608 10.2832C98.5146 9.13456 97.5933 8.24912 96.3968 7.62692C95.2002 7.00473 93.7883 6.69363 92.161 6.69363C90.5337 6.69363 89.1218 7.00473 87.9253 7.62692C86.7287 8.24912 85.8074 9.13456 85.1613 10.2832C84.5151 11.408 84.1921 12.7601 84.1921 14.3395V19.4367C84.1921 20.9922 84.5151 22.3443 85.1613 23.493C85.8074 24.6417 86.7287 25.5271 87.9253 26.1493C89.1218 26.7715 90.5337 27.0826 92.161 27.0826C93.7883 27.0826 95.2002 26.7715 96.3968 26.1493C97.5933 25.5271 98.5146 24.6417 99.1608 23.493C99.8069 22.3443 100.13 20.9922 100.13 19.4367V14.3395C100.13 12.7601 99.8069 11.408 99.1608 10.2832ZM94.8162 22.2061C95.403 21.5978 95.7337 20.7021 95.7337 19.4367V14.3395C95.7337 13.0435 95.3997 12.1536 94.8195 11.5734C94.234 10.9879 93.3754 10.6591 92.161 10.6591C90.9769 10.6591 90.1129 10.9846 89.4993 11.5766C88.9211 12.1569 88.5883 13.0459 88.5883 14.3395V19.4367C88.5883 20.6999 88.9178 21.5945 89.5026 22.2028C90.116 22.7928 90.979 23.1171 92.161 23.1171C93.3732 23.1171 94.2308 22.7896 94.8162 22.2061ZM89.1098 22.5956C88.3919 21.8538 88.033 20.8008 88.033 19.4367V14.3395C88.033 12.9515 88.3919 11.8986 89.1098 11.1806C89.8517 10.4627 90.8688 10.1038 92.161 10.1038C93.4772 10.1038 94.4943 10.4627 95.2122 11.1806C95.9301 11.8986 96.2891 12.9515 96.2891 14.3395V19.4367C96.2891 20.8008 95.9301 21.8538 95.2122 22.5956C94.4943 23.3135 93.4772 23.6725 92.161 23.6725C90.8688 23.6725 89.8517 23.3135 89.1098 22.5956Z" fill="#1E1E1E"/>
</svg>
