<svg width="99" height="54" viewBox="0 0 99 54" fill="none" xmlns="http://www.w3.org/2000/svg">
<path d="M22.5018 35.5967C22.5018 40.4456 18.8218 43.4329 12.2411 43.4329C5.66036 43.4329 1.98036 40.2725 1.50412 35.1205H7.26224C7.30553 37.5016 9.34036 39.0169 12.3277 39.0169C14.6655 39.0169 16.4406 38.2809 16.4406 36.6358C16.4406 35.1638 15.4881 34.5576 13.2801 34.1247L9.12389 33.3454C4.96765 32.6094 2.45659 30.3148 2.45659 26.7214C2.45659 22.4353 6.13659 19.448 11.8947 19.448C17.6961 19.448 21.6792 22.5219 22.1121 27.5007H16.354C16.1375 25.2494 14.4491 23.864 11.8947 23.864C9.68671 23.864 8.21471 24.6866 8.21471 26.1586C8.21471 27.544 9.16718 28.1068 11.2453 28.4965L15.7046 29.3191C20.2072 30.1849 22.5018 32.2631 22.5018 35.5967ZM38.2131 43V40.1426C36.6979 42.3073 34.4033 43.4329 31.2428 43.4329C26.4371 43.4329 23.2334 40.6188 23.2334 36.2894C23.2334 31.7868 26.8701 29.3623 33.624 29.3623C34.9228 29.3623 36.0484 29.4489 37.4771 29.6221V28.2367C37.4771 25.6391 36.0051 24.1238 33.4941 24.1238C30.8964 24.1238 29.3379 25.6391 29.1214 28.2367H23.7096C24.056 22.9115 27.9091 19.448 33.4941 19.448C39.5553 19.448 43.1054 22.7816 43.1054 28.4532V43H38.2131ZM28.9049 36.1162C28.9049 38.0645 30.2903 39.2767 32.5416 39.2767C35.6155 39.2767 37.4771 37.5882 37.4771 34.904V33.2588C36.0484 33.0423 35.0527 32.9558 34.0136 32.9558C30.5934 32.9558 28.9049 34.0381 28.9049 36.1162ZM69.2023 31.4405C69.2023 38.1944 65.1759 43.4329 58.9416 43.4329C55.9543 43.4329 53.4432 42.0908 51.6682 39.6664V43H46.1265V11.9148H52.1444V22.8682C53.8329 20.6169 56.1707 19.448 58.9416 19.448C65.1759 19.448 69.2023 24.6 69.2023 31.4405ZM63.0112 31.4405C63.0112 27.0245 60.5435 24.7732 57.5995 24.7732C54.6987 24.7732 52.1877 26.9812 52.1877 31.3539C52.1877 35.7266 54.6122 38.0645 57.5995 38.0645C60.5435 38.0645 63.0112 35.7699 63.0112 31.4405ZM81.1112 43.4329C74.4006 43.4329 69.3785 38.1511 69.3785 31.4405C69.3785 24.6866 74.4006 19.448 81.1112 19.448C87.8218 19.448 92.8439 24.6866 92.8439 31.4405C92.8439 38.1511 87.8218 43.4329 81.1112 43.4329ZM81.1112 38.1078C84.0985 38.1078 86.6529 35.7266 86.6529 31.4405C86.6529 27.1543 84.0985 24.8165 81.1112 24.8165C78.1239 24.8165 75.5696 27.1543 75.5696 31.4405C75.5696 35.7266 78.1239 38.1078 81.1112 38.1078Z" fill="#0F242A"/>
<path d="M95.9761 42.9469C95.4738 42.9469 95.0149 42.8285 94.5993 42.5918C94.1837 42.3494 93.8575 42.0233 93.6208 41.6134C93.3842 41.1978 93.2658 40.736 93.2658 40.228C93.2658 39.7258 93.3842 39.2669 93.6208 38.8512C93.8633 38.4356 94.1894 38.1095 94.5993 37.8728C95.0149 37.6303 95.4738 37.5091 95.9761 37.5091C96.4956 37.5091 96.9603 37.6275 97.3701 37.8641C97.7857 38.095 98.109 38.4183 98.3399 38.8339C98.5766 39.2438 98.6949 39.7085 98.6949 40.228C98.6949 40.7244 98.5737 41.1805 98.3313 41.5961C98.0888 42.0117 97.7598 42.3407 97.3441 42.5832C96.9285 42.8256 96.4725 42.9469 95.9761 42.9469ZM95.9761 42.3927C96.3744 42.3927 96.7294 42.3003 97.0411 42.1156C97.3586 41.9309 97.6068 41.674 97.7857 41.345C97.9647 41.0159 98.0542 40.6436 98.0542 40.228C98.0542 39.8124 97.9647 39.44 97.7857 39.111C97.6068 38.782 97.3586 38.5251 97.0411 38.3404C96.7294 38.1556 96.3744 38.0633 95.9761 38.0633C95.5777 38.0633 95.2198 38.1556 94.9024 38.3404C94.5906 38.5251 94.3453 38.782 94.1664 39.111C93.9874 39.44 93.8979 39.8124 93.8979 40.228C93.8979 40.6436 93.9874 41.0159 94.1664 41.345C94.3453 41.674 94.5906 41.9309 94.9024 42.1156C95.2198 42.3003 95.5777 42.3927 95.9761 42.3927ZM96.9718 41.7433C96.7005 41.7433 96.4898 41.6856 96.3397 41.5701C96.1896 41.4489 96.0857 41.2642 96.028 41.0159L95.9154 40.5137H95.7682V41.674H94.7638V38.6174H96.1233C96.51 38.6174 96.8188 38.7011 97.0497 38.8686C97.2806 39.0302 97.3961 39.2467 97.3961 39.518C97.3961 39.9105 97.1998 40.1876 96.8073 40.3492L96.8766 40.6609C96.8997 40.7706 96.9372 40.8485 96.9891 40.8947C97.0469 40.9409 97.1248 40.964 97.2229 40.964C97.2806 40.964 97.3615 40.9582 97.4654 40.9467V41.6307C97.3211 41.7058 97.1565 41.7433 96.9718 41.7433ZM96.0453 39.8903C96.1492 39.8903 96.2358 39.8585 96.3051 39.795C96.3801 39.7315 96.4177 39.6536 96.4177 39.5613C96.4177 39.4689 96.383 39.3996 96.3137 39.3534C96.2502 39.3073 96.1608 39.2842 96.0453 39.2842H95.7682V39.8903H96.0453Z" fill="#0F242A"/>
</svg>
